<svg width="13" height="12" viewBox="0 0 13 12" fill="none" xmlns="http://www.w3.org/2000/svg">
<g id="Vector">
<path d="M6.49343 4.53062C5.13715 4.53062 4.03766 3.51641 4.03766 2.26531C4.03766 1.01421 5.13715 0 6.49343 0C7.84971 0 8.94919 1.01421 8.94919 2.26531C8.94919 3.51641 7.84971 4.53062 6.49343 4.53062Z" fill="white"/>
<path d="M9.80929 9.56776C10.0109 9.43193 10.1932 9.29356 10.3694 9.12726C11.1187 8.42018 11.8956 7.6928 12.7013 6.94573C12.9284 6.735 13.0027 6.50714 12.9985 6.20311C12.9807 4.85052 12.9813 3.47318 12.9999 2.07236C13.0034 1.81657 12.8946 1.59949 12.6738 1.42114C12.2506 1.07839 11.5522 1.27071 11.385 1.76071C11.3499 1.86354 11.332 2.00571 11.3313 2.18724C11.3286 3.39384 11.3286 4.60108 11.3306 5.80768C11.3306 5.9086 11.2949 5.99683 11.224 6.07236C10.8366 6.48556 10.4478 6.87083 10.0591 7.22882C9.768 7.4973 9.35653 7.0987 9.66892 6.79911C9.94828 6.53063 10.238 6.26023 10.5387 5.98794C10.7086 5.83307 10.818 5.70422 10.8662 5.60203C11.1125 5.07648 10.3481 4.60171 9.89186 5.03459C9.22304 5.66868 8.52877 6.31926 7.80973 6.98635C7.60261 7.17804 7.45674 7.40083 7.37073 7.65471C7.31706 7.81276 7.28954 8.06538 7.28885 8.41193C7.2861 9.58299 7.2861 10.7477 7.28816 11.9061C7.28816 11.953 7.33013 11.9911 7.38105 11.9917C8.08771 11.9949 8.79162 11.9975 9.4914 12C9.57465 12 9.63864 11.993 9.68337 11.9778C9.73016 11.9626 9.76112 11.9213 9.76043 11.8756C9.75149 11.1495 9.74805 10.4392 9.75011 9.74484C9.75011 9.71247 9.75355 9.6801 9.75837 9.649C9.76388 9.61409 9.78108 9.5868 9.80929 9.56776Z" fill="white"/>
<path d="M3.33651 6.8245C3.5966 7.0822 3.26357 7.49413 2.96839 7.21803C2.55623 6.83148 2.15439 6.45763 1.76425 6.09521C1.68924 6.02602 1.64727 5.93209 1.64727 5.83434C1.64727 4.62266 1.64727 3.40083 1.64727 2.16947C1.64727 1.79308 1.58397 1.53094 1.23236 1.34878C0.662627 1.05427 0.00138187 1.42431 0.00275803 2.02602C0.00482178 3.49032 0.00413418 4.9305 5.72205e-06 6.34719C-0.000681877 6.56173 0.0798225 6.74516 0.242209 6.89686C0.958502 7.56776 1.77181 8.33005 2.68283 9.18439C2.84384 9.33608 2.99935 9.45605 3.14866 9.54427C3.1982 9.5741 3.22848 9.62488 3.22848 9.67947V11.8984C3.22779 11.9505 3.27389 11.993 3.33032 11.993L5.57897 11.9943C5.6636 11.9943 5.70626 11.9549 5.70626 11.8769C5.70833 10.5973 5.70764 9.3145 5.70489 8.0292C5.70489 7.83243 5.63608 7.61599 5.49984 7.37988C5.42621 7.2523 5.27552 7.08156 5.04846 6.86703C4.43538 6.2888 3.82918 5.72009 3.22917 5.1609C2.99316 4.94065 2.78811 4.79086 2.47985 4.89432C2.16677 4.99968 1.98581 5.31895 2.12342 5.60774C2.17296 5.71184 2.27274 5.83116 2.42205 5.96509C2.7654 6.27356 3.07022 6.55982 3.33651 6.8245Z" fill="white"/>
</g>
</svg>
