<svg width="15" height="13" viewBox="0 0 15 13" fill="none" xmlns="http://www.w3.org/2000/svg">
<path id="Vector" d="M7.35376 6.8499C7.53604 7.05223 7.8329 7.05223 8.01779 6.8499L10.8536 3.72737C11.6764 2.8196 11.6296 1.31575 10.7077 0.479071C9.9057 -0.250976 8.71046 -0.119732 7.97612 0.689609L7.68447 1.00952L7.39542 0.692343C6.66109 -0.119732 5.46584 -0.250976 4.66381 0.479071C3.74459 1.31575 3.69511 2.8196 4.51798 3.72737L7.35376 6.8499ZM14.7205 7.05227C14.4133 6.7597 13.9341 6.77884 13.6112 7.05227L11.2051 9.07287C10.9109 9.32169 10.5437 9.45567 10.1635 9.45567H7.08294C6.85379 9.45567 6.6663 9.2588 6.6663 9.01819C6.6663 8.77757 6.85379 8.58071 7.08294 8.58071H9.12189C9.53593 8.58071 9.92133 8.28268 9.98903 7.8534C10.075 7.30655 9.67394 6.83079 9.16616 6.83079H4.99972C4.29664 6.83079 3.61699 7.08508 3.07014 7.5499L1.85927 8.58071H0.416644C0.18749 8.58071 0 8.77757 0 9.01819V11.6431C0 11.8837 0.18749 12.0805 0.416644 12.0805H9.7078C10.0854 12.0805 10.4525 11.9466 10.7494 11.6977L14.6867 8.38932C15.0825 8.05847 15.1137 7.42413 14.7205 7.05227Z" fill="white"/>
</svg>
