<svg width="180" height="54" viewBox="0 0 180 54" fill="none" xmlns="http://www.w3.org/2000/svg">
<g id="Layer_1" clip-path="url(#clip0_8_1153)">
<g id="Group">
<g id="Group_2">
<path id="Vector" d="M71.7216 29.6688H68.0485V37.2273H64.0275V17.5325H72.6495C77.0959 17.5325 79.7637 19.7338 79.7637 23.6299C79.7637 26.474 78.3138 28.4416 75.762 29.2403L80.9236 37.2468H76.3419L71.7603 29.6883L71.7216 29.6688ZM68.0485 26.5325H72.1082C74.4861 26.5325 75.5687 25.6364 75.5687 23.6688C75.5687 21.7013 74.4667 20.8052 72.1082 20.8052H68.0485V26.5325Z" fill="white"/>
<path id="Vector_2" d="M99.231 33.9156V37.2273H84.152V17.5325H98.8057V20.8442H88.2311V25.7338H96.5632V28.8896H88.2311V33.8961H99.2116L99.231 33.9156Z" fill="white"/>
<path id="Vector_3" d="M111.661 29.8636V37.2273H107.582V29.8636L100.642 17.5325H104.992L108.124 23.4156L109.612 26.513L111.12 23.4156L114.252 17.5325H118.582L111.642 29.8636H111.661Z" fill="white"/>
<path id="Vector_4" d="M138.243 17.5325V37.2273H134.164V28.9286H125.542V37.2273H121.463V17.5325H125.542V25.6169H134.164V17.5325H138.243Z" fill="white"/>
<path id="Vector_5" d="M154.462 32.4156H146.904L145.299 37.2273H141.123L148.257 17.5325H153.148L160.281 37.2273H156.048L154.443 32.4156H154.462ZM153.457 29.3766L151.582 23.8247L150.693 20.8442H150.635L149.803 23.7662L147.928 29.3766H153.438H153.457Z" fill="white"/>
<path id="Vector_6" d="M180 37.2273H175.322L168.478 25.6558L166.796 22.3442H166.758L166.874 25.8312V37.2273H163.201V17.5325H167.86L174.703 29.0844L176.385 32.4351H176.443L176.327 28.9481V17.552H180V37.2468V37.2273Z" fill="white"/>
</g>
<g id="Group_3">
<path id="Vector_7" d="M71.7216 29.6688H68.0485V37.2273H64.0275V17.5325H72.6495C77.0959 17.5325 79.7637 19.7338 79.7637 23.6299C79.7637 26.474 78.3138 28.4416 75.762 29.2403L80.9236 37.2468H76.3419L71.7603 29.6883L71.7216 29.6688ZM68.0485 26.5325H72.1082C74.4861 26.5325 75.5687 25.6364 75.5687 23.6688C75.5687 21.7013 74.4667 20.8052 72.1082 20.8052H68.0485V26.5325Z" fill="white"/>
<path id="Vector_8" d="M99.231 33.9156V37.2273H84.152V17.5325H98.8057V20.8442H88.2311V25.7338H96.5632V28.8896H88.2311V33.8961H99.2116L99.231 33.9156Z" fill="white"/>
<path id="Vector_9" d="M111.661 29.8636V37.2273H107.582V29.8636L100.642 17.5325H104.992L108.124 23.4156L109.612 26.513L111.12 23.4156L114.252 17.5325H118.582L111.642 29.8636H111.661Z" fill="white"/>
<path id="Vector_10" d="M138.243 17.5325V37.2273H134.164V28.9286H125.542V37.2273H121.463V17.5325H125.542V25.6169H134.164V17.5325H138.243Z" fill="white"/>
<path id="Vector_11" d="M154.462 32.4156H146.904L145.299 37.2273H141.123L148.257 17.5325H153.148L160.281 37.2273H156.048L154.443 32.4156H154.462ZM153.457 29.3766L151.582 23.8247L150.693 20.8442H150.635L149.803 23.7662L147.928 29.3766H153.438H153.457Z" fill="white"/>
<path id="Vector_12" d="M180 37.2273H175.322L168.478 25.6558L166.796 22.3442H166.758L166.874 25.8312V37.2273H163.201V17.5325H167.86L174.703 29.0844L176.385 32.4351H176.443L176.327 28.9481V17.552H180V37.2468V37.2273Z" fill="white"/>
</g>
</g>
<g id="Group_4">
<path id="Vector_13" d="M65.8254 45.526L64.9168 46.5195V48.2532H64.0082V42.6039H64.9168V45.4286L67.4879 42.6039H68.6092L66.4827 44.9221L68.6478 48.2532H67.5846L65.8254 45.526Z" fill="#333333"/>
<path id="Vector_14" d="M73.4809 47.5325L73.4229 48.1559C73.2875 48.2143 73.1136 48.2533 72.9009 48.2533C72.4369 48.2533 72.1276 48.0779 72.031 47.6104C71.7603 48.0195 71.219 48.2533 70.6004 48.2533C69.8078 48.2533 69.2085 47.8831 69.2085 47.1234C69.2085 46.461 69.7498 45.974 70.871 45.7792L71.9536 45.5844V45.3701C71.9536 44.8636 71.6443 44.5325 71.0837 44.5325C70.5231 44.5325 70.1751 44.7662 69.9818 45.3117L69.2858 44.9416C69.4985 44.2597 70.1364 43.8312 71.0644 43.8312C72.1276 43.8312 72.8622 44.3182 72.8622 45.3507V47.2792C72.8622 47.4935 72.9396 47.5909 73.1715 47.5909C73.2875 47.5909 73.3842 47.5909 73.4809 47.552V47.5325ZM71.9536 46.7533V46.2468L71.0257 46.4416C70.4457 46.5584 70.1558 46.7533 70.1558 47.0844C70.1558 47.3961 70.3877 47.5714 70.7937 47.5714C71.3543 47.5714 71.9536 47.2792 71.9536 46.7533Z" fill="#333333"/>
<path id="Vector_15" d="M75.2594 46.9091C75.2594 47.3377 75.356 47.474 75.704 47.474C75.9167 47.474 76.052 47.4545 76.2646 47.3571L76.168 48.0974C75.9747 48.1948 75.704 48.2338 75.472 48.2338C74.7181 48.2338 74.3701 47.8636 74.3701 47.026V41.9416H75.2787V46.8896L75.2594 46.9091Z" fill="#333333"/>
<path id="Vector_16" d="M78.8165 46.2273L77.9852 47.1039V48.2338H77.0766V42.039H77.9852V46.052L80.0151 43.9481H81.0783L79.4544 45.6234L81.175 48.2338H80.1311L78.8165 46.2273Z" fill="#333333"/>
<path id="Vector_17" d="M82.9729 48.2338H82.0643V43.9481H82.9729V48.2338Z" fill="#333333"/>
<path id="Vector_18" d="M88.3085 45.4675V48.2338H87.3999V45.7597C87.3999 44.9221 87.0132 44.6299 86.4913 44.6299C85.9306 44.6299 85.3313 44.9805 85.3313 45.974V48.2338H84.4227V43.948H85.2347L85.2733 44.6688C85.5633 44.1039 86.1046 43.8701 86.7039 43.8701C87.6125 43.8701 88.3085 44.3961 88.3085 45.4675Z" fill="#333333"/>
<path id="Vector_19" d="M96.4085 45.4675V48.2338H95.4999V45.6039C95.4999 44.9026 95.1326 44.6104 94.63 44.6104C94.0307 44.6104 93.5281 45.0584 93.5281 45.8961V48.2143H92.6195V45.5844C92.6195 44.8831 92.2522 44.5909 91.7495 44.5909C91.2469 44.5909 90.6476 44.961 90.6476 45.9351V48.2143H89.739V43.9286H90.551L90.5896 44.6299C90.8796 44.0844 91.4209 43.8312 91.9622 43.8312C92.5615 43.8312 93.1414 44.1039 93.3928 44.6883C93.6634 44.1039 94.3014 43.8312 94.862 43.8312C95.6739 43.8312 96.4279 44.3377 96.4279 45.4286L96.4085 45.4675Z" fill="#333333"/>
<path id="Vector_20" d="M101.821 47.5325L101.764 48.1559C101.628 48.2143 101.454 48.2533 101.242 48.2533C100.778 48.2533 100.468 48.0779 100.372 47.6104C100.101 48.0195 99.5597 48.2533 98.941 48.2533C98.1484 48.2533 97.5491 47.8831 97.5491 47.1234C97.5491 46.461 98.0904 45.974 99.2117 45.7792L100.294 45.5844V45.3701C100.294 44.8636 99.985 44.5325 99.4243 44.5325C98.8637 44.5325 98.5157 44.7662 98.3224 45.3117L97.6265 44.9416C97.8391 44.2597 98.4771 43.8312 99.405 43.8312C100.468 43.8312 101.203 44.3182 101.203 45.3507V47.2792C101.203 47.4935 101.28 47.5909 101.512 47.5909C101.628 47.5909 101.725 47.5909 101.821 47.552V47.5325ZM100.275 46.7533V46.2468L99.347 46.4416C98.767 46.5584 98.4771 46.7533 98.4771 47.0844C98.4771 47.3961 98.7091 47.5714 99.115 47.5714C99.6757 47.5714 100.275 47.2792 100.275 46.7533Z" fill="#333333"/>
<path id="Vector_21" d="M108.433 43.9675L106.751 48.2532H105.765L104.064 43.9675H105.069L106.268 47.4935L107.505 43.9675H108.452H108.433Z" fill="#333333"/>
<path id="Vector_22" d="M112.976 46.3636H109.864C109.96 47.1234 110.405 47.513 111.101 47.513C111.662 47.513 112.029 47.2987 112.164 46.9286L112.918 47.2403C112.609 47.8831 112.029 48.2338 111.101 48.2338C109.767 48.2338 108.974 47.3961 108.974 46.013C108.974 44.6299 109.728 43.7922 111.043 43.7922C112.357 43.7922 113.015 44.6493 113.015 45.8961C113.015 46.0519 113.015 46.2468 112.976 46.3636ZM109.883 45.6623H112.164C112.087 44.9416 111.681 44.5325 111.043 44.5325C110.366 44.5325 109.98 44.9416 109.883 45.6623Z" fill="#333333"/>
<path id="Vector_23" d="M117.712 41.2987C117.712 41.6494 117.48 41.8636 117.113 41.8636C116.746 41.8636 116.533 41.6494 116.533 41.2987C116.533 40.9481 116.746 40.7338 117.113 40.7338C117.48 40.7338 117.712 40.9481 117.712 41.2987ZM117.577 48.2532H116.668V42.6039H117.577V48.2532Z" fill="#333333"/>
<path id="Vector_24" d="M121.211 48.1948C121.54 48.4286 121.695 48.7403 121.695 49.052C121.695 49.5974 121.289 49.987 120.651 49.987C120.206 49.987 119.916 49.8896 119.665 49.6753L119.936 49.1494C120.071 49.2857 120.284 49.4026 120.535 49.4026C120.806 49.4026 121.018 49.2078 121.018 48.9156C121.018 48.6234 120.883 48.4286 120.4 48.2143C119.684 48.1753 119.066 47.8831 118.737 47.3182L119.356 46.7922C119.568 47.2987 120.071 47.4935 120.67 47.4935C121.269 47.4935 121.579 47.2792 121.579 46.987C121.579 46.7143 121.327 46.5585 120.593 46.4221C119.336 46.1883 118.892 45.8182 118.892 45.0974C118.892 44.3766 119.53 43.7727 120.67 43.7727C121.617 43.7727 122.139 44.0844 122.449 44.7468L121.811 45.2338C121.598 44.7273 121.231 44.513 120.69 44.513C120.148 44.513 119.8 44.7662 119.8 45.039C119.8 45.3507 120.052 45.5065 120.844 45.6623C122.062 45.8766 122.487 46.2468 122.487 46.9675C122.487 47.5909 122.023 48.0585 121.211 48.2143V48.1948Z" fill="#333333"/>
<path id="Vector_25" d="M127.804 46.0325C127.804 47.4351 127.088 48.2532 125.929 48.2532C125.252 48.2532 124.73 47.9026 124.479 47.3766L124.44 48.1558H123.647V41.961H124.556V44.5714C124.807 44.1039 125.291 43.7922 125.929 43.7922C127.088 43.7922 127.823 44.6299 127.823 46.0325H127.804ZM126.895 46.0325C126.895 45.0974 126.45 44.5519 125.716 44.5519C124.981 44.5519 124.537 45.0974 124.537 45.974V46.0714C124.537 46.9675 125.001 47.513 125.716 47.513C126.431 47.513 126.895 46.948 126.895 46.0325Z" fill="#333333"/>
<path id="Vector_26" d="M128.867 42.6818C128.867 42.3312 129.08 42.1169 129.486 42.1169C129.892 42.1169 130.085 42.3312 130.085 42.6818C130.085 43.0325 129.872 43.2468 129.486 43.2468C129.099 43.2468 128.867 43.0325 128.867 42.6818ZM129.93 48.2532H129.022V43.9675H129.93V48.2532Z" fill="#333333"/>
<path id="Vector_27" d="M134.048 43.9675L133.913 44.8052C133.797 44.7273 133.603 44.6883 133.371 44.6883C132.869 44.6883 132.308 45.0974 132.308 45.974V48.2338H131.399V43.948H132.173L132.25 44.7078C132.482 44.1428 132.927 43.8701 133.584 43.8701C133.758 43.8701 133.932 43.8896 134.048 43.948V43.9675Z" fill="#333333"/>
<path id="Vector_28" d="M135.826 46.9091C135.826 47.3377 135.923 47.474 136.271 47.474C136.484 47.474 136.619 47.4545 136.832 47.3571L136.735 48.0974C136.542 48.1948 136.271 48.2338 136.039 48.2338C135.285 48.2338 134.937 47.8636 134.937 47.026V41.9416H135.846V46.8896L135.826 46.9091Z" fill="#333333"/>
<path id="Vector_29" d="M137.489 42.6818C137.489 42.3312 137.702 42.1169 138.108 42.1169C138.514 42.1169 138.707 42.3312 138.707 42.6818C138.707 43.0325 138.494 43.2468 138.108 43.2468C137.721 43.2468 137.489 43.0325 137.489 42.6818ZM138.552 48.2532H137.644V43.9675H138.552V48.2532Z" fill="#333333"/>
<path id="Vector_30" d="M143.018 44.4156C143.269 44.6688 143.424 45 143.424 45.3896C143.424 46.2662 142.689 46.8312 141.587 46.8312C141.317 46.8312 141.104 46.8117 140.891 46.7532C140.601 46.8312 140.485 46.9675 140.485 47.2208C140.485 47.4935 140.698 47.6299 141.007 47.6299H142.419C143.269 47.6299 143.772 48.039 143.772 48.7208C143.772 49.6169 142.825 50.1234 141.587 50.1234C140.196 50.1234 139.558 49.6558 139.558 49.0325C139.558 48.6429 139.828 48.3312 140.312 48.2143C139.983 48.0584 139.712 47.7857 139.712 47.3961C139.712 46.948 139.983 46.6753 140.369 46.539C139.944 46.2857 139.712 45.8766 139.712 45.3701C139.712 44.4935 140.447 43.9286 141.549 43.9286C141.935 43.9286 142.264 44.0065 142.554 44.1234C142.631 43.5195 143.115 43.1104 143.733 43.1104L143.888 43.8117C143.366 43.8117 143.037 43.987 142.979 44.3961L143.018 44.4156ZM141.104 48.3896C140.582 48.3896 140.331 48.5649 140.331 48.8377C140.331 49.2078 140.756 49.4416 141.665 49.4416C142.573 49.4416 142.979 49.1493 142.979 48.8182C142.979 48.5455 142.805 48.3896 142.245 48.3896H141.104ZM140.369 42.1169H141.046C141.046 42.5065 141.317 42.8182 141.684 42.8182C142.051 42.8182 142.322 42.5065 142.322 42.1169H142.999C142.999 42.8961 142.477 43.4221 141.684 43.4221C140.891 43.4221 140.369 42.8961 140.369 42.1169ZM142.496 45.3896C142.496 44.9026 142.109 44.5909 141.587 44.5909C141.065 44.5909 140.679 44.9221 140.679 45.3896C140.679 45.8571 141.065 46.2078 141.587 46.2078C142.109 46.2078 142.496 45.8766 142.496 45.3896Z" fill="#333333"/>
<path id="Vector_31" d="M144.487 42.6818C144.487 42.3312 144.7 42.1169 145.106 42.1169C145.512 42.1169 145.705 42.3312 145.705 42.6818C145.705 43.0325 145.492 43.2468 145.106 43.2468C144.719 43.2468 144.487 43.0325 144.487 42.6818ZM145.55 48.2532H144.642V43.9675H145.55V48.2532Z" fill="#333333"/>
<path id="Vector_32" d="M154.231 45.4286C154.231 47.2402 153.206 48.2532 151.447 48.2532H149.475V42.6039H151.447C153.206 42.6039 154.231 43.6169 154.231 45.4286ZM153.283 45.4286C153.283 44.1234 152.626 43.3831 151.447 43.3831H150.383V47.474H151.447C152.626 47.474 153.283 46.7337 153.283 45.4286Z" fill="#333333"/>
<path id="Vector_33" d="M159.257 46.3636H156.144C156.241 47.1234 156.686 47.513 157.382 47.513C157.942 47.513 158.31 47.2987 158.445 46.9286L159.199 47.2403C158.889 47.8831 158.31 48.2338 157.382 48.2338C156.048 48.2338 155.255 47.3961 155.255 46.013C155.255 44.6299 156.009 43.7922 157.324 43.7922C158.638 43.7922 159.295 44.6493 159.295 45.8961C159.295 46.0519 159.295 46.2468 159.257 46.3636ZM156.164 45.6623H158.445C158.368 44.9416 157.962 44.5325 157.324 44.5325C156.647 44.5325 156.26 44.9416 156.164 45.6623Z" fill="#333333"/>
<path id="Vector_34" d="M163.143 43.9675L163.007 44.8052C162.891 44.7273 162.698 44.6883 162.466 44.6883C161.963 44.6883 161.403 45.0974 161.403 45.974V48.2338H160.494V43.948H161.267L161.345 44.7078C161.577 44.1428 162.021 43.8701 162.679 43.8701C162.853 43.8701 163.027 43.8896 163.143 43.948V43.9675Z" fill="#333333"/>
<path id="Vector_35" d="M167.918 45.4675V48.2338H167.009V45.7597C167.009 44.9221 166.622 44.6299 166.1 44.6299C165.54 44.6299 164.94 44.9805 164.94 45.974V48.2338H164.032V43.948H164.844L164.882 44.6688C165.172 44.1039 165.714 43.8701 166.313 43.8701C167.222 43.8701 167.918 44.3961 167.918 45.4675Z" fill="#333333"/>
<path id="Vector_36" d="M173.099 46.3636H169.986C170.083 47.1234 170.527 47.513 171.223 47.513C171.784 47.513 172.151 47.2987 172.287 46.9286L173.041 47.2403C172.731 47.8831 172.151 48.2338 171.223 48.2338C169.889 48.2338 169.097 47.3961 169.097 46.013C169.097 44.6299 169.851 43.7922 171.165 43.7922C172.48 43.7922 173.137 44.6493 173.137 45.8961C173.137 46.0519 173.137 46.2468 173.099 46.3636ZM170.005 45.6623H172.287C172.209 44.9416 171.803 44.5325 171.165 44.5325C170.489 44.5325 170.102 44.9416 170.005 45.6623Z" fill="#333333"/>
<path id="Vector_37" d="M177.332 44.4156C177.584 44.6688 177.738 45 177.738 45.3896C177.738 46.2662 177.004 46.8312 175.902 46.8312C175.631 46.8312 175.418 46.8117 175.206 46.7532C174.916 46.8312 174.8 46.9675 174.8 47.2208C174.8 47.4935 175.012 47.6299 175.322 47.6299H176.733C177.583 47.6299 178.086 48.039 178.086 48.7208C178.086 49.6169 177.139 50.1234 175.902 50.1234C174.51 50.1234 173.872 49.6558 173.872 49.0325C173.872 48.6429 174.142 48.3312 174.626 48.2143C174.297 48.0584 174.026 47.7857 174.026 47.3961C174.026 46.948 174.297 46.6753 174.684 46.539C174.258 46.2857 174.026 45.8766 174.026 45.3701C174.026 44.4935 174.761 43.9286 175.863 43.9286C176.25 43.9286 176.578 44.0065 176.868 44.1234C176.946 43.5195 177.429 43.1104 178.047 43.1104L178.202 43.8117C177.68 43.8117 177.352 43.987 177.294 44.3961L177.332 44.4156ZM175.418 48.3896C174.896 48.3896 174.645 48.5649 174.645 48.8377C174.645 49.2078 175.07 49.4416 175.979 49.4416C176.888 49.4416 177.294 49.1493 177.294 48.8182C177.294 48.5455 177.12 48.3896 176.559 48.3896H175.418ZM174.684 42.1169H175.36C175.36 42.5065 175.631 42.8182 175.998 42.8182C176.366 42.8182 176.636 42.5065 176.636 42.1169H177.313C177.313 42.8961 176.791 43.4221 175.998 43.4221C175.206 43.4221 174.684 42.8961 174.684 42.1169ZM176.81 45.3896C176.81 44.9026 176.424 44.5909 175.902 44.5909C175.38 44.5909 174.993 44.9221 174.993 45.3896C174.993 45.8571 175.38 46.2078 175.902 46.2078C176.424 46.2078 176.81 45.8766 176.81 45.3896Z" fill="#333333"/>
<path id="Vector_38" d="M178.782 42.6818C178.782 42.3312 178.995 42.1169 179.401 42.1169C179.807 42.1169 180 42.3312 180 42.6818C180 43.0325 179.787 43.2468 179.401 43.2468C179.014 43.2468 178.782 43.0325 178.782 42.6818ZM179.845 48.2532H178.937V43.9675H179.845V48.2532Z" fill="#333333"/>
</g>
<g id="Group_5">
<path id="Vector_39" d="M5.26451 28.194L3.71613 16.459L5.89677 11.8498L8.34838 13.3905L9.2129 20.0155L8.74838 24.7788L5.26451 28.194Z" fill="white"/>
<path id="Vector_40" d="M50.7484 30.3382C50.7484 43.126 40.3226 53.5 27.471 53.5C24.5419 53.5 21.7548 52.9608 19.1742 51.985C19.1355 51.9721 19.0968 51.9593 19.0581 51.9465C18.0516 51.5613 17.071 51.0991 16.129 50.5727C15.9097 50.4571 15.7032 50.3287 15.4839 50.2003C14.3355 49.5199 13.2516 48.7367 12.2452 47.8636C12.2452 47.8636 12.2323 47.8508 12.2193 47.8379C11.4968 47.2216 10.8129 46.554 10.1806 45.8479C6.45161 41.7393 4.19354 36.2955 4.19354 30.3382C4.19354 27.8217 4.59354 25.3951 5.34193 23.1226C5.36774 23.0584 5.39354 22.9813 5.40645 22.9043C5.67741 22.1083 5.98709 21.3379 6.34838 20.5804C6.37419 20.5291 6.39999 20.4777 6.4129 20.4264C7.83225 17.4477 9.87096 14.8156 12.3742 12.6972C12.4 12.6715 12.4387 12.6458 12.4645 12.6202C16.5161 9.21778 21.7548 7.16351 27.471 7.16351C40.3226 7.16351 50.7484 17.5375 50.7484 30.3253V30.3382Z" fill="white"/>
<path id="Vector_41" opacity="0.1" d="M45.6 32.2769C45.4065 33.2655 45.1355 34.2156 44.7871 35.1272C43.9484 37.3869 42.7226 39.4283 41.2 41.1487C39.5613 43.0104 37.5613 44.5254 35.3548 45.6039C32.8903 46.8108 30.1548 47.4656 27.329 47.4399C27.0581 47.4143 26.8 47.4143 26.5419 47.4143C26.2452 47.4143 25.9484 47.4528 25.6645 47.5041C24.3484 47.7352 23.1484 48.3643 22.2194 49.2888C22.8 48.4799 23.4839 47.7609 24.2581 47.1446C24.6323 46.8493 25.0194 46.5797 25.4194 46.3358C26.5161 45.6681 27.7419 45.1931 29.0194 44.9491C29.0194 44.9491 29.0452 44.9491 29.0581 44.9491C29.1226 44.9363 29.1871 44.9235 29.2645 44.9106C32.0387 44.3842 34.6194 43.1902 36.8129 41.4826C39.3419 39.5053 41.329 36.8476 42.4774 33.702C42.5032 33.625 42.529 33.5608 42.5548 33.4838C42.5161 33.548 42.4903 33.625 42.4516 33.6892C40.1677 38.016 36.1677 41.1616 31.5226 42.4327C31.2645 42.4969 31.0065 42.5611 30.7484 42.6253C28.8903 43.1003 27.071 43.6909 25.3032 44.3842C25.3032 43.922 25.3419 43.4598 25.4065 42.9847C25.8839 39.3898 28.0516 36.103 31.1871 34.2541C33.4581 32.9189 36.0774 32.3668 38.6194 31.7377C41.1613 31.1085 44.2323 30.4281 46 28.3096C46 28.6049 46 28.913 45.9871 29.2083C45.9742 29.6706 45.9355 30.1199 45.8839 30.5821C45.8194 31.1471 45.729 31.712 45.6129 32.2641L45.6 32.2769Z" fill="#231F20"/>
<g id="Group_6">
<path id="Vector_42" d="M21.8194 44.8978C21.4194 45.6424 20.9807 46.3743 20.5161 47.0547C18.6452 44.2044 16.5807 41.4569 14.3613 38.8377C14.0516 38.4782 13.7419 38.1187 13.4323 37.7592C9.39356 32.8675 6.92904 26.8588 6.3613 20.5804C6.3613 20.5547 6.3613 20.5419 6.3613 20.5162C6.15485 18.2437 6.20646 15.9455 6.51614 13.6473C6.52904 13.5189 6.55485 13.3777 6.56775 13.2364C6.52904 13.3648 6.49033 13.506 6.45162 13.6344C5.60001 16.7287 5.23872 19.8871 5.35485 22.9813C5.35485 23.0199 5.35485 23.0712 5.35485 23.1097C5.45808 25.7546 5.89679 28.3738 6.64517 30.8903C8.07743 35.6536 10.6323 40.0702 14.1419 43.7166C14.2194 43.8064 14.3097 43.8835 14.4 43.9733C14.4129 43.9733 14.4258 43.999 14.4387 44.0119C16.0645 45.6938 17.3549 47.6582 18.271 49.7638C18.5807 50.4699 18.8387 51.1889 19.0581 51.9208C18.0516 51.5356 17.071 51.0734 16.129 50.547C15.9097 50.4314 15.7032 50.303 15.4839 50.1746C15.1097 49.8922 14.7355 49.6482 14.3226 49.4043C13.6129 48.9036 12.9161 48.39 12.2581 47.8379C12.2581 47.8379 12.2452 47.8251 12.2323 47.8122C11.4968 47.2088 10.7871 46.5668 10.1161 45.912C7.87098 43.6909 5.97421 41.1616 4.47743 38.4268C2.3613 34.5751 1.03227 30.2997 0.55485 25.8573C0.11614 21.7488 0.438721 17.499 1.5742 13.3135C2.03872 11.6315 2.63227 9.9496 3.35485 8.30619C3.78066 7.35609 4.23227 6.44451 4.72259 5.55861C5.12259 4.82678 5.5484 4.12063 6.00001 3.42731C6.29679 2.9651 6.59356 2.52857 6.91614 2.09204C7.22582 6.09786 9.78066 9.5901 12.3742 12.6843C12.9678 13.3905 13.5613 14.071 14.1419 14.7386C17.2129 18.2822 20.4774 21.7745 22.4129 26.0884C25.0839 32.0458 24.8387 39.1073 21.7936 44.8721L21.8194 44.8978Z" fill="url(#paint0_linear_8_1153)"/>
<path id="Vector_43" d="M22.0131 45.0005C21.626 45.6424 20.9938 46.477 20.5809 47.0933L20.5164 47.196L20.4518 47.0933C18.297 43.7808 15.8712 40.6609 13.2777 37.6693C13.0325 37.3612 12.7744 37.0531 12.5422 36.7321C7.52282 30.0942 5.27766 21.4535 6.50346 13.2236L6.61959 13.2493C5.09701 18.5005 4.99378 24.1625 6.33572 29.4651C7.62604 34.6008 10.2325 39.4155 13.8583 43.2929C13.9357 43.3699 14.0906 43.5497 14.168 43.6267L14.1938 43.6524V43.6652C14.1809 43.6652 14.1938 43.6652 14.2196 43.7166L14.1938 43.6652C15.897 45.3471 17.3551 47.4784 18.3357 49.7381C18.6712 50.4956 18.9422 51.2788 19.1744 52.062L19.0196 52.0107C17.7551 51.5356 16.5293 50.9322 15.4325 50.2645C15.0583 49.9821 14.6583 49.7253 14.2583 49.4942C2.85185 41.8164 -2.46428 26.6277 1.09701 13.3905C2.2583 8.72989 4.47766 4.36458 7.35508 0.5L7.49701 2.06638C7.75508 5.93096 10.8518 9.85974 12.968 12.235C16.2196 15.984 19.8583 19.4634 22.3615 23.7902C24.568 27.5521 25.5615 31.9687 25.2519 36.2955L25.2131 36.8861L25.1486 37.4767C25.0583 38.2471 24.9293 39.056 24.697 39.8006C24.1551 41.6751 23.0712 43.3571 22.026 45.0005H22.0131ZM21.626 44.7951C22.4648 42.728 22.6583 40.4939 22.9938 38.3241C23.0841 37.8362 23.1357 37.22 23.2002 36.7192C23.8196 28.1684 20.0518 22.8786 14.7486 16.6902C11.3293 12.4789 6.83895 8.08794 6.34862 2.15625L7.38088 2.45155C-3.53525 17.0625 -0.864279 38.7735 14.3744 49.353C14.7099 49.5455 15.2131 49.8794 15.5357 50.1233L16.1809 50.4956C17.0067 50.9578 18.1164 51.4971 19.097 51.8694L18.9938 51.9593C18.7744 51.2275 18.5164 50.5085 18.2067 49.8023C17.2777 47.671 15.9744 45.7195 14.3615 44.0375L14.1035 43.7679L14.0777 43.7166C14.0777 43.7166 14.1164 43.7808 14.0777 43.7551C13.8454 43.5111 13.6131 43.2544 13.3809 43.0104C9.92282 39.1843 7.43249 34.4981 6.18088 29.4908C4.85185 24.1625 4.94217 18.4876 6.49056 13.2108L6.60669 13.2364C6.14217 16.3563 6.16798 19.5405 6.6583 22.6475C7.50991 28.1042 9.8454 33.304 13.3551 37.5795C15.9615 40.5581 18.3873 43.6909 20.568 46.9906H20.4389C20.9164 46.2972 21.3035 45.5526 21.6131 44.7822L21.626 44.7951Z" fill="white"/>
</g>
<path id="Vector_44" d="M42.2839 28.5022C42.258 29.5036 42.1548 30.4923 41.9871 31.4424C41.5613 33.8176 40.7097 36.0259 39.5097 37.9903C38.2193 40.1088 36.5161 41.9448 34.5419 43.3828C32.3226 45.0005 29.7419 46.1047 26.9548 46.5797C26.6839 46.6054 26.4258 46.6439 26.1677 46.6953C25.8709 46.7595 25.6 46.8365 25.3161 46.9392C24.0645 47.3886 22.9935 48.2231 22.2322 49.2888C22.6709 48.39 23.2129 47.5683 23.8709 46.8365C24.1806 46.477 24.5161 46.1432 24.8774 45.835C25.8451 44.9877 26.9548 44.3072 28.1806 43.845H28.2064C28.2709 43.8193 28.3355 43.7936 28.4 43.7679C31.0451 42.7665 33.3806 41.1487 35.2387 39.0816C37.3806 36.7064 38.8774 33.7406 39.458 30.4409C39.4709 30.3639 39.4839 30.2868 39.4968 30.2098C39.4709 30.2868 39.458 30.351 39.4322 30.4281C37.9355 35.0758 34.5548 38.8762 30.1935 40.9305C29.9484 41.0332 29.7032 41.1488 29.4709 41.2515C27.729 42.0475 26.0387 42.9334 24.4129 43.922C24.3355 43.4598 24.2839 42.9976 24.2709 42.5225C24.1161 38.9019 25.6774 35.2941 28.4516 32.9189C30.4516 31.2112 32.9419 30.2226 35.329 29.157C37.7161 28.0913 40.6193 26.8973 42 24.5092C42.0516 24.8045 42.1032 25.0998 42.1419 25.3951C42.2064 25.8445 42.2451 26.3067 42.2709 26.7689C42.3097 27.3338 42.3226 27.8988 42.3097 28.4765L42.2839 28.5022Z" fill="url(#paint1_linear_8_1153)"/>
</g>
</g>
<defs>
<linearGradient id="paint0_linear_8_1153" x1="0.361302" y1="27.0257" x2="24.2839" y2="27.0257" gradientUnits="userSpaceOnUse">
<stop stop-color="#3399CC"/>
<stop offset="1" stop-color="#33CC99"/>
</linearGradient>
<linearGradient id="paint1_linear_8_1153" x1="22.2322" y1="36.9118" x2="42.2839" y2="36.9118" gradientUnits="userSpaceOnUse">
<stop stop-color="#3399CC"/>
<stop offset="1" stop-color="#33CC99"/>
</linearGradient>
<clipPath id="clip0_8_1153">
<rect width="180" height="54" fill="white"/>
</clipPath>
</defs>
</svg>
