<svg width="45" height="30" viewBox="0 0 45 30" fill="none" xmlns="http://www.w3.org/2000/svg">
<g id="Vector">
<path d="M22.5173 13.2614C26.1597 13.2614 29.1142 10.3398 29.1142 6.73785C29.1142 3.13588 26.1597 0.214287 22.5173 0.214287C18.8748 0.214287 15.9203 3.13588 15.9203 6.73785C15.9203 10.3398 18.8748 13.2614 22.5173 13.2614Z" fill="#FF6634"/>
<path d="M9.43532 12.3503C12.0541 12.3503 14.1753 10.2527 14.1753 7.66306C14.1753 5.07341 12.0541 2.97579 9.43532 2.97579C6.81656 2.97579 4.69535 5.07341 4.69535 7.66306C4.69535 10.2527 6.81656 12.3503 9.43532 12.3503Z" fill="#FF6634"/>
<path d="M35.6016 12.3503C38.218 12.3503 40.3392 10.2527 40.3392 7.66541C40.3392 5.07812 38.218 2.9805 35.6016 2.9805C32.9852 2.9805 30.864 5.07812 30.864 7.66541C30.864 10.2527 32.9852 12.3503 35.6016 12.3503Z" fill="#FF6634"/>
<path d="M13.7182 14.9635C10.509 17.4425 8.6735 20.9291 8.59018 24.9172C8.5878 25.089 8.49733 25.1761 8.32354 25.1761H0.222017C0.13155 25.1761 0.0577484 25.1032 0.0553677 25.0137C0.0410835 24.3733 0.0244186 23.7401 0.00537302 23.1138C-0.168418 17.6332 3.89305 13.7417 9.38533 14.0148C11.0375 14.0972 12.3422 14.1607 13.6825 14.6998C13.7611 14.7304 13.7991 14.8199 13.7682 14.8999C13.7587 14.9258 13.7396 14.947 13.7182 14.9635Z" fill="#FF6634"/>
<path d="M36.4467 24.9548C36.3706 20.915 34.485 17.3837 31.2878 14.9329C31.2354 14.8929 31.2259 14.8199 31.2663 14.7681C31.2782 14.7516 31.2973 14.7375 31.3163 14.7304C32.3424 14.3208 33.3352 14.083 34.2946 14.0195C35.8992 13.9135 38.1323 14.0454 39.6012 14.6057C42.8008 15.8228 44.7935 18.5914 44.9554 21.9932C45.003 22.9655 45.0125 23.9684 44.9839 25.0019C44.9815 25.0961 44.9054 25.1691 44.8101 25.1691H36.6681C36.5467 25.1691 36.4491 25.0749 36.4467 24.9548Z" fill="#FF6634"/>
<path d="M11.4899 29.7857C11.3399 29.7857 11.2185 29.6656 11.2185 29.5173V25.2209C11.2185 19.5354 15.8775 14.9258 21.6245 14.9258H23.3767C29.1237 14.9258 33.7827 19.5354 33.7827 25.2209V29.5173C33.7827 29.6656 33.6613 29.7857 33.5113 29.7857H11.4899Z" fill="#FF6634"/>
</g>
</svg>
