<svg width="45" height="46" viewBox="0 0 45 46" fill="none" xmlns="http://www.w3.org/2000/svg">
<g id="Vector">
<path d="M13.2906 10.9222C13.2906 10.9222 13.2906 10.9342 13.2906 10.9414C13.2906 10.9487 13.2906 10.9535 13.2906 10.9607C13.2906 10.9679 13.2953 10.9727 13.2977 10.9775C13.2977 10.9823 13.3001 10.9871 13.3025 10.9919C13.3025 10.9919 13.3025 10.9943 13.3049 10.9967C14.1002 12.1505 14.8837 13.2994 15.6599 14.4412C16.3813 15.506 17.1933 16.8449 18.0962 18.4625C18.1965 18.6452 18.335 18.9625 18.2873 19.1668C17.7857 21.419 18.8223 23.5439 20.573 24.9116C20.5922 24.926 20.6137 24.9332 20.6352 24.938L20.6423 24.9404C20.6471 24.9404 20.6543 24.9404 20.659 24.9404C20.6686 24.9404 20.6781 24.9404 20.6877 24.9404C20.6973 24.9404 20.7044 24.9356 20.714 24.9332C20.7211 24.9308 20.7307 24.926 20.7379 24.9212C20.745 24.9164 20.7522 24.9092 20.7594 24.902C20.7641 24.8972 20.7689 24.8948 20.7713 24.8923C20.7713 24.8923 20.7713 24.8875 20.7737 24.8851C20.7856 24.8659 20.7976 24.8467 20.8 24.8226C21.0866 22.5944 20.3175 20.9623 18.9775 19.1091C18.0126 17.7751 17.2531 16.2367 16.2475 14.8594C15.273 13.5254 14.3248 12.1817 13.4004 10.8309C13.3956 10.8237 13.3885 10.8213 13.3789 10.8285L13.3312 10.8621C13.3312 10.8621 13.3288 10.8621 13.3264 10.8645C13.3216 10.8669 13.3192 10.8717 13.3144 10.8765C13.3097 10.8814 13.3049 10.8862 13.3025 10.891C13.3001 10.8958 13.2977 10.903 13.2953 10.9078C13.2953 10.9126 13.2906 10.9198 13.2882 10.9246L13.2906 10.9222Z" fill="#CB9800"/>
<path d="M23.2864 29.4401C22.4432 27.8945 21.0603 26.5773 19.3167 26.1687C18.8318 26.0557 18.1989 26.0101 17.4202 26.0341C17.2268 26.0389 16.9664 25.9668 16.7992 25.8634C14.1504 24.2001 11.461 22.5127 8.72854 20.8013C8.68555 20.7749 8.64972 20.7821 8.62345 20.8253L8.59001 20.8782C8.59001 20.8782 8.58523 20.895 8.59479 20.8999C11.2651 22.6137 13.9116 24.3563 16.5365 26.1278C17.0596 26.4812 17.4919 26.909 17.96 27.3369C19.2188 28.4858 20.7307 29.219 22.4982 29.5362C22.737 29.5771 22.9806 29.5819 23.2314 29.5483C23.2386 29.5483 23.2482 29.5434 23.2553 29.541C23.2601 29.5386 23.2625 29.5314 23.2673 29.529C23.2744 29.5218 23.2792 29.517 23.284 29.5074C23.2888 29.4978 23.2888 29.4906 23.2911 29.481C23.2911 29.4761 23.2959 29.4713 23.2959 29.4641C23.2959 29.4569 23.2911 29.4473 23.2888 29.4401H23.2864Z" fill="#CB9800"/>
<path d="M19.1304 29.6444L19.2044 29.5314C19.2236 29.5026 19.2164 29.4641 19.1877 29.4449L11.5661 24.3107C11.5517 24.301 11.535 24.2986 11.5183 24.301C11.5016 24.3034 11.4872 24.3131 11.4777 24.3275L11.4036 24.4405C11.3845 24.4693 11.3917 24.5078 11.4204 24.527L19.042 29.6612C19.0707 29.6805 19.1089 29.6732 19.128 29.6444H19.1304Z" fill="#CB9800"/>
<path d="M21.4138 5.93219C21.5332 6.24467 21.5834 6.56436 21.5643 6.89126C21.5093 7.84311 21.9417 8.65074 22.8636 9.31656C23.0308 9.43674 23.1383 9.39588 23.1861 9.19638C23.4583 8.05223 23.2123 7.07634 22.3214 6.40331C21.7147 5.94662 21.4878 5.2832 21.1511 4.61979C20.4512 3.24489 19.7275 1.88441 18.9799 0.535954C18.9608 0.499899 18.9345 0.492688 18.8987 0.511917H18.8963C18.8653 0.528743 18.8581 0.555183 18.8748 0.586431C19.7753 2.32188 20.7068 4.07896 21.4138 5.93219Z" fill="#CB9800"/>
<path d="M24.151 7.56909C24.2012 7.84552 24.1749 8.0979 24.0722 8.32144C23.5133 9.55212 23.616 10.8597 24.3803 12.2442C24.4161 12.3067 24.4663 12.3404 24.5355 12.3476C24.5953 12.3524 24.6502 12.3187 24.6741 12.2635C25.1661 11.0736 25.2019 9.90306 24.7792 8.7517C24.6024 8.26856 24.4758 7.79744 24.3994 7.33594C24.0985 5.51876 23.5658 3.80495 22.8779 2.11757C22.8636 2.08632 22.8397 2.07671 22.8087 2.08872H22.8063C22.7872 2.09594 22.78 2.11036 22.7872 2.12959C23.3652 3.88186 23.819 5.69423 24.151 7.56909Z" fill="#CB9800"/>
<path d="M20.7211 8.67238C21.0149 9.11465 21.2753 9.58577 21.507 10.0833C21.987 11.1193 22.7776 11.9414 23.8835 12.5543C23.9981 12.6192 24.0483 12.5856 24.034 12.4534C23.9026 11.2467 23.4249 10.3213 22.6009 9.67711C22.1112 9.29253 21.4568 9.22522 21.0866 8.70122C20.4512 7.80465 19.8374 6.91049 19.2451 6.01873C18.839 5.40819 18.3924 4.78805 17.9075 4.15829C17.8932 4.14146 17.8764 4.13906 17.8597 4.15107C17.8287 4.17271 17.8239 4.19674 17.843 4.22799C18.7602 5.6774 19.7204 7.15807 20.7211 8.67238Z" fill="#CB9800"/>
<path d="M25.9734 11.5111C25.9782 11.6 25.9567 11.6794 25.9089 11.7539C24.9989 13.1648 24.9822 14.6719 25.8612 16.2752C25.8707 16.292 25.8827 16.3064 25.897 16.3185C25.9018 16.3233 25.9065 16.3257 25.9113 16.3281C25.9185 16.3329 25.9233 16.3377 25.9304 16.3401C25.9304 16.3401 25.9376 16.3401 25.9424 16.3425C25.9519 16.3473 25.9615 16.3473 25.9734 16.3497C25.983 16.3497 25.9925 16.3521 26.0021 16.3521C26.0116 16.3521 26.0212 16.3497 26.0307 16.3473C26.0403 16.3449 26.0522 16.3425 26.0618 16.3377C26.0618 16.3377 26.069 16.3377 26.0714 16.3353C26.0785 16.3305 26.0833 16.3257 26.0905 16.3209C26.0952 16.316 26.1 16.3136 26.1048 16.3088C26.1191 16.2944 26.1287 16.28 26.1382 16.2632C26.7019 15.0061 26.8309 13.7754 26.5228 12.5687C26.3914 12.0519 26.2887 11.5015 26.2194 10.9198C26.0069 9.15552 25.5889 7.23979 24.9679 5.17504C24.9607 5.1486 24.9416 5.13898 24.9153 5.14619H24.9129C24.8795 5.15581 24.8676 5.17744 24.8747 5.21109C25.2497 6.67252 25.5554 8.17001 25.7967 9.70596C25.8922 10.3189 25.9519 10.9222 25.9734 11.5111Z" fill="#CB9800"/>
<path d="M8.05021 9.17715C8.82647 10.0449 9.56929 10.9414 10.2763 11.8717C10.5462 12.2298 10.7564 12.5783 10.7205 13.0398C10.5772 14.8642 11.8145 16.2608 13.3001 17.2222C13.3168 17.2318 13.3335 17.2367 13.3527 17.2367H13.3598C13.3646 17.2367 13.3694 17.2367 13.3694 17.2367C13.3765 17.2367 13.3837 17.2367 13.3909 17.2318C13.398 17.2318 13.4028 17.227 13.41 17.2246C13.4148 17.2222 13.4219 17.2174 13.4267 17.2126C13.4315 17.2078 13.4362 17.203 13.441 17.1982C13.441 17.1982 13.4458 17.1934 13.4482 17.191V17.1838C13.4577 17.1694 13.4625 17.1501 13.4625 17.1309C13.453 16.0685 13.1807 15.1022 12.6457 14.2345C12.0079 13.2009 11.0358 12.4846 10.3647 11.5255C9.73648 10.629 9.04382 9.78287 8.28667 8.99207C7.41965 8.08348 6.45709 7.09317 5.40377 6.01873C5.38705 6.0043 5.37272 6.0043 5.356 6.01873C5.3345 6.04036 5.33211 6.06199 5.35122 6.08362C6.1442 7.01865 7.04466 8.04983 8.05021 9.17475V9.17715Z" fill="#CB9800"/>
<path d="M6.77241 12.1673C7.30265 13.559 8.32731 14.3931 9.84639 14.6695C9.8655 14.6719 9.887 14.6743 9.90611 14.6695C9.90611 14.6695 9.91088 14.6695 9.91327 14.6671C9.9276 14.6647 9.93954 14.6599 9.95148 14.6527C9.96104 14.6479 9.97298 14.6455 9.98254 14.6383C9.99209 14.6311 9.99926 14.6215 10.0088 14.6143C10.0184 14.6046 10.0279 14.5974 10.0327 14.5878C10.0399 14.5782 10.0422 14.5686 10.047 14.5566C10.0518 14.5445 10.059 14.5325 10.0614 14.5181C10.0614 14.5181 10.0614 14.5133 10.0637 14.5109C10.0661 14.4917 10.0685 14.47 10.0637 14.4508C9.8655 13.0326 9.07969 12.1048 7.70631 11.6674C7.30504 11.54 6.90139 11.5568 6.55744 11.2683C4.46752 9.50886 2.35371 7.99695 0.0750909 6.47062C0.0488175 6.45379 0.0273211 6.45619 0.0106017 6.48263C-0.00611769 6.51148 -0.00372921 6.53552 0.0225442 6.55474C2.0647 8.04262 4.18329 9.72278 6.37353 11.6C6.55745 11.7563 6.6912 11.9462 6.7748 12.1673H6.77241Z" fill="#CB9800"/>
<path d="M22.4146 13.5903C23.0308 14.8883 23.8166 15.9122 25.1231 16.5684C25.1375 16.5756 25.1542 16.5805 25.1709 16.5805C25.1757 16.5805 25.1804 16.5805 25.1876 16.5805C25.1948 16.5805 25.2019 16.5805 25.2067 16.5805C25.2115 16.5805 25.2139 16.5781 25.2163 16.5756C25.2258 16.5756 25.233 16.5708 25.2425 16.566C25.2497 16.5612 25.2569 16.5588 25.264 16.554C25.2712 16.5492 25.276 16.542 25.2831 16.5372C25.2903 16.53 25.2951 16.5228 25.2999 16.5156C25.2999 16.5156 25.3046 16.5107 25.307 16.5083C25.3094 16.5011 25.3118 16.4963 25.3142 16.4891C25.3142 16.4843 25.319 16.4795 25.319 16.4747C25.3214 16.4579 25.3238 16.441 25.319 16.4242C25.0825 14.8666 24.3254 13.4172 22.7943 12.9461C22.5125 12.8596 22.2617 12.5952 22.1065 12.3572C21.5356 11.4799 20.9457 10.6169 20.3318 9.76605C19.8159 9.04735 19.4385 8.26375 18.9322 7.53785C18.8533 7.42728 18.7984 7.43689 18.765 7.56909C18.753 7.61957 18.7602 7.66284 18.7865 7.7037C18.8701 7.82869 18.9107 8.033 19.0038 8.17241C19.952 9.57616 20.8621 10.9703 21.7339 12.3524C21.9823 12.7466 22.2092 13.16 22.4122 13.5903H22.4146Z" fill="#CB9800"/>
<path d="M27.311 15.5445C26.2075 17.0516 26.3102 18.6404 26.9814 20.4047C26.9909 20.4287 27.0076 20.4456 27.0267 20.46C27.0267 20.46 27.0291 20.4648 27.0315 20.4672C27.0315 20.4672 27.0387 20.4696 27.0411 20.472C27.0482 20.4768 27.0578 20.4792 27.065 20.4816C27.0721 20.484 27.0817 20.4864 27.0888 20.4864C27.096 20.4864 27.1056 20.4864 27.1127 20.4864C27.1223 20.4864 27.1294 20.4864 27.139 20.4816C27.1438 20.4816 27.1462 20.4816 27.1509 20.4816L27.1581 20.4768C27.1796 20.4672 27.1987 20.4528 27.213 20.4311C28.1732 18.9769 28.2544 17.566 27.9391 15.8882C27.8149 15.2224 27.7146 14.422 27.6382 13.4869C27.5355 12.2298 27.3277 10.7371 27.01 9.00649C26.9479 8.66517 26.8858 8.34308 26.8237 8.04262C26.8094 7.97291 26.7664 7.94407 26.6971 7.96089L26.6303 7.97531C26.6088 7.98012 26.5992 7.99454 26.604 8.01858C27.108 10.3021 27.3993 12.6192 27.4782 14.9724C27.4853 15.1935 27.428 15.3858 27.311 15.5469V15.5445Z" fill="#CB9800"/>
<path d="M14.4442 15.3882C14.5493 15.5829 14.5756 15.7704 14.5254 15.9555C14.0214 17.8183 15.6504 19.9696 17.0811 20.9744C17.0954 20.984 17.1097 20.9864 17.1241 20.9888H17.1289C17.1336 20.9888 17.1384 20.9888 17.1384 20.9888C17.1456 20.9888 17.1503 20.9888 17.1575 20.9864C17.1623 20.9864 17.1695 20.9816 17.1742 20.9792C17.179 20.9768 17.1838 20.9744 17.1886 20.9696C17.1933 20.9648 17.1981 20.9623 17.2029 20.9551C17.2029 20.9551 17.2077 20.9503 17.2101 20.9479V20.9431C17.2172 20.9311 17.2244 20.9167 17.2244 20.8999C17.296 19.8302 17.1241 18.8303 16.7085 17.8953C16.3239 17.0275 15.6671 16.3016 15.0652 15.5276C14.6854 15.0397 14.3033 14.4989 13.9163 13.91C13.6178 13.4557 13.2285 12.9197 12.7436 12.3019C11.7141 10.9871 10.699 9.75884 9.70304 8.6219C9.68633 8.60027 9.66483 8.60027 9.64333 8.61709L9.59079 8.66276V8.66757C11.0502 10.4968 12.3519 12.2202 13.4912 13.8403C13.8327 14.3282 14.1504 14.8426 14.4442 15.3858V15.3882Z" fill="#CB9800"/>
<path d="M19.2904 10.5929C19.2904 10.5929 19.2928 10.6049 19.2976 10.6121C20.4895 12.5038 21.6837 14.4051 22.8803 16.316C23.1741 16.7824 23.3556 17.2583 23.5467 17.7799C23.9886 18.9817 25.1398 20.0514 26.2051 20.633C26.2194 20.6427 26.2385 20.6451 26.2553 20.6475C26.26 20.6475 26.2672 20.6475 26.272 20.6475C26.2791 20.6475 26.2839 20.6475 26.2911 20.6475C26.2959 20.6475 26.2983 20.6451 26.303 20.6427C26.3126 20.6427 26.3221 20.6378 26.3317 20.633C26.3412 20.6282 26.3484 20.6258 26.3556 20.621C26.3627 20.6162 26.3699 20.609 26.3771 20.6042C26.3842 20.597 26.3914 20.5898 26.3962 20.5826C26.3962 20.5826 26.4033 20.5778 26.4033 20.573C26.4057 20.5681 26.4081 20.5609 26.4105 20.5537C26.4105 20.5489 26.4153 20.5441 26.4153 20.5393C26.4201 20.5225 26.4225 20.5056 26.4201 20.4864C26.2147 18.4409 25.2497 17.1213 23.5252 16.5252C23.4345 16.4915 23.3533 16.4338 23.2959 16.3545C22.8779 15.7896 22.4934 15.208 22.1399 14.6094C21.2968 13.1817 20.3629 11.8284 19.4075 10.4511C19.4003 10.4391 19.3884 10.4391 19.3764 10.4463L19.3263 10.4799C19.3215 10.4823 19.3167 10.4896 19.3143 10.492C19.3095 10.4968 19.3048 10.4992 19.3 10.504C19.2952 10.5088 19.2952 10.516 19.2928 10.5208C19.2928 10.5256 19.288 10.5304 19.2857 10.5352C19.2857 10.54 19.2857 10.5472 19.2857 10.5545C19.2857 10.5593 19.2857 10.5665 19.2857 10.5713C19.2857 10.5761 19.2904 10.5833 19.2928 10.5881L19.2904 10.5929Z" fill="#CB9800"/>
<path d="M28.7154 14.5566C28.9041 15.9483 28.799 17.4866 28.7871 18.924C28.7871 19.013 28.756 19.0899 28.6987 19.1596C27.3826 20.7388 27.1247 22.5368 27.9248 24.5558C27.9487 24.6159 28.0108 24.652 28.0753 24.6448C28.1254 24.64 28.1637 24.6135 28.1852 24.563C28.2019 24.5246 28.2234 24.4885 28.2449 24.4549C29.0665 23.2146 29.4128 21.8517 29.2863 20.3638C29.2289 19.6764 29.1286 19.0322 29.1477 18.3496C29.174 17.3616 29.1262 16.393 29.0044 15.4435C28.9351 14.9171 28.8922 14.3859 28.8754 13.8523C28.8587 13.297 28.8157 12.7658 28.7441 12.2563C28.6772 11.7659 28.6509 11.2756 28.5984 10.7828C28.5984 10.766 28.5912 10.754 28.5793 10.7419C28.5625 10.7251 28.541 10.7155 28.5148 10.7131C28.4694 10.7059 28.4455 10.7251 28.4431 10.7708C28.4073 11.2443 28.4312 11.6962 28.51 12.1265C28.6581 12.9221 28.6079 13.7537 28.7154 14.5566Z" fill="#CB9800"/>
<path d="M8.60673 16.155C9.82008 17.1477 11.1887 17.6958 12.7914 17.7438C12.8129 17.7438 12.832 17.7366 12.8511 17.727H12.8582C12.8582 17.727 12.863 17.7222 12.8654 17.7198C12.8726 17.715 12.8773 17.7102 12.8821 17.703C12.8869 17.6982 12.8917 17.691 12.8941 17.6861C12.8965 17.6789 12.9012 17.6741 12.9036 17.6669C12.906 17.6597 12.9084 17.6525 12.9084 17.6453V17.6285C12.9084 17.6092 12.9036 17.5876 12.8917 17.5708C11.7237 15.7848 10.1664 14.97 8.21741 15.1262C7.97617 15.1455 7.74926 15.0926 7.53907 14.9676C5.44437 13.7249 3.32101 12.5183 1.16898 11.3501C1.14509 11.338 1.12599 11.3429 1.11404 11.3645L1.08061 11.4246L1.08299 11.4294C3.15381 12.6769 5.10521 13.8571 6.9324 14.9724C7.52236 15.3305 8.07887 15.7271 8.60673 16.1574V16.155Z" fill="#CB9800"/>
<path d="M20.4799 19.561C20.9122 20.347 21.3278 21.2147 21.7291 22.1618C21.8127 22.3613 21.8246 22.568 21.7625 22.7795C21.077 25.1063 22.0444 27.4547 23.8023 29.017C23.819 29.0315 23.8381 29.0411 23.8572 29.0483C23.8644 29.0483 23.8692 29.0531 23.8763 29.0531C23.8835 29.0531 23.8883 29.0579 23.8954 29.0603C23.9026 29.0603 23.9074 29.0603 23.9145 29.0603C23.9265 29.0603 23.9384 29.0603 23.9504 29.0603C23.9623 29.0603 23.9719 29.0555 23.9838 29.0531C23.9934 29.0483 24.0053 29.0435 24.0149 29.0387C24.0244 29.0315 24.034 29.0243 24.0435 29.017C24.0483 29.0122 24.0531 29.0098 24.0579 29.0074C24.0626 29.0026 24.065 28.9954 24.0698 28.9906C24.0746 28.9858 24.077 28.981 24.0793 28.9738C24.0889 28.9545 24.0985 28.9353 24.1008 28.9137C24.2274 28.1036 24.2346 27.2864 24.1247 26.4667C24.1032 26.3201 24.1414 26.3033 24.2394 26.4139C24.6478 26.8778 24.8246 27.3609 24.7696 27.8633C24.7027 28.4906 24.7481 29.0964 24.9058 29.6853C24.9297 29.7742 24.987 29.8175 25.0801 29.8151L27.7672 29.767C27.7839 29.767 27.7982 29.7622 27.8126 29.7574C27.8173 29.7574 27.8221 29.7526 27.8269 29.7478C27.8341 29.743 27.8412 29.7406 27.846 29.7357C27.846 29.7357 27.846 29.7333 27.8508 29.7309C27.8579 29.7237 27.8627 29.7165 27.8675 29.7093C27.8723 29.7021 27.877 29.6973 27.8794 29.6901C27.8818 29.6829 27.8842 29.6756 27.8866 29.6684C27.8866 29.6588 27.8914 29.6516 27.8914 29.642V29.6348C27.8914 29.6276 27.889 29.6204 27.8866 29.6132C27.8866 29.6083 27.8866 29.6011 27.8842 29.5963C27.8794 29.5819 27.8723 29.5675 27.8603 29.5555L26.8213 28.3008C26.7927 28.2623 26.7807 28.2142 26.7951 28.1686L26.8142 28.1012C26.8261 28.0652 26.8476 28.058 26.8787 28.0796C27.4208 28.4474 28.1493 28.8776 28.3452 29.541C28.3738 29.6396 28.4383 29.6853 28.5387 29.6805L28.6127 29.6757C28.6844 29.6708 28.713 29.6348 28.6963 29.5651L28.5339 28.7815C28.5148 28.6853 28.5434 28.6685 28.6175 28.731C28.725 28.8175 28.8181 28.8079 28.8969 28.7046C30.0434 27.2071 30.5307 25.6038 30.3563 23.8996C30.3014 23.3444 30.2942 22.7675 30.3372 22.1666C30.5187 19.561 30.4184 16.953 30.0362 14.3426C30.0171 14.2008 30.0052 14.2032 30.0004 14.345C29.9861 14.7705 30.0052 15.2392 30.0553 15.756C30.2775 17.989 30.2608 20.2196 30.0076 22.4526C29.9837 22.6738 29.8428 22.9814 29.6899 23.1425C28.6151 24.2746 28.1684 25.6976 28.35 27.4114C28.3834 27.7215 28.4264 28.0412 28.4766 28.3705C28.5363 28.743 28.5052 28.7502 28.3858 28.3921C28.0156 27.272 27.557 26.1447 27.0076 25.0101C26.924 24.8347 26.807 24.7097 26.6565 24.6327C26.5682 24.6904 26.475 24.6904 26.3723 24.6327C25.8994 24.3635 25.4575 24.1376 25.0443 23.9573C24.9153 23.8996 24.8078 23.8011 24.741 23.6761L20.4775 15.7896C20.4106 15.6671 20.37 15.6743 20.3581 15.8137C20.3509 15.8738 20.3605 15.9267 20.3867 15.9747C20.5277 16.2584 20.585 16.5636 20.5563 16.8881C20.5492 16.9747 20.5659 17.0564 20.6065 17.1333C21.4114 18.5683 22.2522 20.0345 23.124 21.5344C23.9886 23.0247 24.6645 24.4405 25.1279 26.0365C25.1948 26.2696 25.1637 26.486 25.0347 26.6855C25.0252 26.7023 25.0109 26.7143 24.9941 26.7239C24.987 26.7288 24.9822 26.7312 24.975 26.7336C24.9679 26.736 24.9583 26.7408 24.9511 26.7408C24.944 26.7408 24.9344 26.7408 24.9273 26.7408C24.9201 26.7408 24.9105 26.7408 24.9034 26.7408C24.8938 26.7408 24.8867 26.736 24.8795 26.7312C24.8723 26.7288 24.8652 26.7263 24.8604 26.7215C24.8437 26.7119 24.8317 26.6975 24.8198 26.6807C23.4464 24.3563 22.085 21.9358 20.7355 19.4216C19.8661 17.8039 18.5691 15.7247 16.8422 13.1889C16.816 13.1528 16.7897 13.1504 16.761 13.1793L16.7133 13.2273C16.7013 13.2394 16.6989 13.2538 16.7085 13.2682C18.0795 15.3858 19.3358 17.4866 20.4799 19.5658V19.561Z" fill="#CB9800"/>
<path d="M27.2536 24.6616C27.342 24.6472 27.3826 24.5943 27.3755 24.503C27.2035 22.3637 26.2791 21.0849 24.5284 20.1812C24.2203 20.0225 23.9671 19.787 23.7665 19.4745C22.5173 17.5299 21.2968 15.5877 20.1001 13.648C20.0882 13.6287 20.0739 13.6263 20.0571 13.6432L20.0046 13.696C19.9783 13.7225 19.9759 13.7489 19.9926 13.7802C21.1606 15.7704 22.3358 17.751 23.5181 19.7245C23.7497 20.1114 23.9981 20.6547 24.2656 21.3493C24.7911 22.7218 25.7823 23.5992 26.6565 24.6279C26.893 24.676 27.0912 24.688 27.2536 24.6616Z" fill="#CB9800"/>
<path d="M6.52874 16.2944C7.98811 17.2318 9.33761 18.0755 10.5772 18.8279C10.9427 19.049 11.3272 19.3519 11.7285 19.7341C12.9394 20.8878 14.6042 21.4359 16.3239 21.5657C16.5198 21.5801 16.5628 21.5056 16.4553 21.3397C15.6337 20.085 14.1862 18.751 12.6672 18.7269C12.2802 18.7221 11.91 18.7293 11.5589 18.751C11.2747 18.7678 10.9904 18.6981 10.7468 18.5515C8.59479 17.2511 6.53113 16.0468 4.55824 14.9436C3.20636 14.1888 3.17531 14.2417 4.4627 15.1046C5.00011 15.4652 5.87191 15.8738 6.52874 16.2944Z" fill="#CB9800"/>
<path d="M29.1525 29.2478C29.0737 29.5026 29.1644 29.6156 29.4296 29.5891L30.7814 29.4497C31.0179 29.4233 31.1994 29.2238 31.1994 28.9858C31.2066 27.921 31.2782 26.8513 31.412 25.7817C31.5338 24.8202 31.6007 23.8756 31.6174 22.9478C31.6509 20.9479 31.6676 18.8856 31.6652 16.7631V16.7583C31.6652 16.7535 31.6628 16.7487 31.6604 16.7439C31.6604 16.7391 31.6604 16.7319 31.6556 16.7271C31.6556 16.7223 31.6509 16.7175 31.6461 16.7127C31.6437 16.7078 31.6413 16.703 31.6365 16.7006C31.6317 16.6958 31.627 16.6934 31.6246 16.691C31.6198 16.6886 31.615 16.6838 31.6103 16.6838C31.6055 16.6838 31.5983 16.6838 31.5935 16.6814C31.5887 16.6814 31.584 16.679 31.5792 16.679H31.5744L31.5075 16.6838C31.4454 16.6886 31.3977 16.7391 31.4001 16.8016C31.4741 19.6692 31.4287 22.0224 31.2639 23.8612C31.2018 24.5679 31.1278 25.2817 31.0418 26.0028C30.9462 26.8129 30.6525 27.034 30.1437 27.5292C29.7018 27.9594 29.3722 28.5315 29.1501 29.2478H29.1525Z" fill="#CB9800"/>
<path d="M19.9258 25.3875C18.9035 23.4021 16.8398 22.1257 14.566 22.3469C14.3033 22.3733 14.0405 22.306 13.7802 22.1474C11.1887 20.5705 8.73093 19.0851 6.40932 17.6934C6.40216 17.6885 6.39738 17.6885 6.3926 17.6958L6.36155 17.7486C6.33528 17.7919 6.34244 17.828 6.38782 17.8568C8.64494 19.2822 10.9283 20.7388 13.2332 22.2267C14.449 23.0127 15.4426 24.0751 16.73 24.7385C17.6448 25.2072 18.6742 25.4764 19.8231 25.5461C19.8422 25.5461 19.8589 25.5437 19.8756 25.5341H19.8828C19.8828 25.5341 19.8876 25.5293 19.8923 25.5269C19.8995 25.5221 19.9043 25.5173 19.909 25.5125C19.9138 25.5077 19.9186 25.5029 19.921 25.4957C19.9258 25.4909 19.9282 25.4837 19.9305 25.4788C19.9329 25.4716 19.9353 25.4644 19.9353 25.4572C19.9353 25.4524 19.9377 25.45 19.9377 25.4452V25.438C19.9377 25.4212 19.9377 25.4019 19.9258 25.3851V25.3875Z" fill="#CB9800"/>
<path d="M44.9499 25.6062C44.3839 20.9119 36.6476 18.4818 32.8093 17.8568H32.8045C32.8045 17.8568 32.8021 17.8616 32.7997 17.864L32.7925 17.8664V17.8712C32.7519 19.0082 32.7782 19.7966 32.8714 20.2364C32.8714 20.246 32.8785 20.2509 32.8881 20.2533C35.0043 20.5681 36.9222 21.097 38.6396 21.8445C39.8457 22.3685 41.2669 23.1377 41.9142 24.3251C43.1013 26.4956 40.2207 28.1397 38.6706 28.8031C36.607 29.6853 34.3188 30.2982 31.8061 30.6395C25.694 31.4736 19.0349 31.3726 13.0207 29.7958C11.129 29.3007 4.76843 27.1013 7.17602 23.991C7.49369 23.5823 7.85197 23.2434 8.25323 22.9742C8.41565 22.8636 8.41565 22.7531 8.25323 22.6449L6.86552 21.7243C6.71982 21.6258 6.52874 21.6354 6.3926 21.7435C4.7947 23.0199 3.75332 24.5222 3.88708 26.6759C4.05666 29.3968 4.73021 32.1755 5.90774 35.0118C6.8273 37.2232 8.10276 39.0404 9.73887 40.4633C12.2826 42.6771 15.2515 44.1482 18.6408 44.8765C21.5237 45.4942 24.3731 45.6673 27.4686 45.326C32.2575 44.7995 36.2009 43.0905 39.2988 40.2037C40.0655 39.4898 40.8059 38.7399 41.3624 37.8409C42.8791 35.3748 43.9683 32.5745 44.6251 29.4401C44.9619 27.8465 45.0718 26.5677 44.9547 25.6062H44.9499Z" fill="#CB9800"/>
<path d="M13.1759 27.5965L15.359 28.9594C15.3948 28.981 15.4402 28.9714 15.4617 28.9353V28.9305C15.4808 28.9041 15.4736 28.8752 15.4569 28.8512C15.4521 28.844 15.4497 28.8344 15.4402 28.8272L13.2571 27.4643C13.2213 27.4426 13.1759 27.4523 13.1544 27.4883V27.4931C13.1401 27.5099 13.1377 27.5316 13.1425 27.5484C13.1472 27.5676 13.1592 27.5845 13.1759 27.5941V27.5965Z" fill="#CB9800"/>
</g>
</svg>
