<svg width="13" height="12" viewBox="0 0 13 12" fill="none" xmlns="http://www.w3.org/2000/svg">
<g id="Vector">
<path d="M6.6007 1.09828C6.69109 1.2752 6.75198 1.45212 6.9148 1.57391C7.15391 1.7534 7.21993 2.01366 7.14685 2.31878C7.13403 2.37199 7.10519 2.38288 7.06032 2.35083C6.81288 2.17327 6.69686 1.95789 6.7116 1.70404C6.71673 1.61686 6.70327 1.53161 6.67122 1.44827C6.48147 0.954045 6.23147 0.485457 5.98981 0.0226388C5.98532 0.0143055 5.98724 0.00725427 5.99558 0.00276711H5.99622C6.00583 -0.00236108 6.01289 -0.000438007 6.01801 0.00917734C6.21865 0.368791 6.41288 0.73161 6.6007 1.09828Z" fill="white"/>
<path d="M7.06416 0.43097C7.24878 0.880968 7.39173 1.33802 7.47249 1.82263C7.49301 1.94571 7.52698 2.07135 7.57442 2.20019C7.68788 2.50724 7.67826 2.81942 7.54621 3.13673C7.5398 3.15147 7.52506 3.16045 7.50903 3.15916C7.49044 3.15724 7.47698 3.14827 7.46737 3.1316C7.26224 2.76237 7.23467 2.41365 7.38467 2.08545C7.41224 2.02584 7.41929 1.95853 7.40583 1.88481C7.31673 1.38481 7.19493 0.901481 7.0398 0.434175C7.03788 0.429047 7.0398 0.425201 7.04493 0.423278C7.05327 0.420073 7.05968 0.422637 7.06352 0.43097H7.06416Z" fill="white"/>
<path d="M6.08917 1.47135C6.24814 1.70917 6.41288 1.94763 6.5834 2.18673C6.68275 2.32647 6.85839 2.34442 6.9898 2.44699C7.21096 2.61878 7.33916 2.86558 7.37442 3.18737C7.37826 3.22262 7.3648 3.2316 7.33403 3.21429C7.03724 3.05083 6.82506 2.8316 6.69622 2.55532C6.63404 2.42263 6.56417 2.29699 6.48532 2.17904C6.21673 1.7752 5.95904 1.38033 5.71289 0.993788C5.70776 0.985455 5.70904 0.979045 5.71737 0.973276C5.72186 0.970071 5.72635 0.970712 5.73019 0.975199C5.86032 1.14315 5.98019 1.30853 6.08917 1.47135Z" fill="white"/>
<path d="M7.60006 1.25597C7.59813 1.24699 7.60134 1.24122 7.61031 1.23866H7.61096C7.61801 1.23674 7.62313 1.23866 7.62506 1.24635C7.79172 1.79699 7.9039 2.30789 7.96095 2.7784C7.97954 2.93352 8.00711 3.08032 8.04236 3.21814C8.12506 3.53993 8.09044 3.86813 7.93916 4.20339C7.92954 4.22454 7.90518 4.23352 7.88403 4.22454C7.8757 4.2207 7.86929 4.21493 7.8648 4.20659C7.6289 3.77903 7.63339 3.37711 7.87762 3.00083C7.89044 2.98096 7.89621 2.95981 7.89493 2.93609C7.88916 2.77904 7.87313 2.61814 7.84749 2.45468C7.78275 2.04507 7.7007 1.64571 7.60006 1.25597Z" fill="white"/>
<path d="M3.14815 2.26494C3.35136 2.47583 3.53725 2.70147 3.70584 2.94057C3.88597 3.19634 4.14687 3.38737 4.31802 3.66301C4.46161 3.89442 4.53469 4.15211 4.53725 4.43544C4.53725 4.45082 4.52443 4.46364 4.50905 4.46364C4.50328 4.46364 4.49815 4.46236 4.49366 4.45916C4.09494 4.20275 3.76289 3.83031 3.80136 3.34378C3.81097 3.2207 3.75456 3.12775 3.68213 3.03224C3.49238 2.78417 3.29302 2.54506 3.08469 2.31365C2.81482 2.01366 2.57316 1.73866 2.36034 1.4893C2.35521 1.48353 2.35585 1.47776 2.36162 1.47199C2.36611 1.46815 2.36995 1.46815 2.37444 1.47199C2.65713 1.75853 2.91546 2.02263 3.14815 2.26494Z" fill="white"/>
<path d="M0.944317 1.59186C1.55585 1.99891 2.12316 2.40212 2.68469 2.87263C2.777 2.94955 2.88533 2.94506 2.99303 2.97904C3.36161 3.0957 3.57251 3.34314 3.62572 3.72134C3.62956 3.7489 3.61033 3.77455 3.58277 3.77839C3.57764 3.77903 3.57187 3.77903 3.56674 3.77839C3.15905 3.70467 2.88405 3.48224 2.74175 3.11109C2.71931 3.05211 2.68341 3.00147 2.63405 2.95981C2.04624 2.45981 1.47829 2.01109 0.929573 1.6143C0.922522 1.60917 0.921881 1.60276 0.926368 1.59571C0.930855 1.58802 0.936625 1.58738 0.943676 1.59186H0.944317Z" fill="white"/>
<path d="M5.96673 1.92071C5.95968 1.90981 5.95776 1.89827 5.96096 1.88481C5.96994 1.84955 5.98468 1.84699 6.00583 1.87648C6.14173 2.07007 6.24301 2.27904 6.38147 2.47071C6.54622 2.69763 6.70455 2.92775 6.85775 3.16173C6.89942 3.22519 6.96673 3.2957 7.04237 3.31878C7.45326 3.44442 7.65647 3.83096 7.71993 4.24634C7.72313 4.26621 7.70967 4.2848 7.68916 4.288C7.68147 4.28929 7.67378 4.288 7.66672 4.2848C7.31608 4.1098 7.10519 3.83672 6.9398 3.49057C6.88532 3.37583 6.82442 3.26557 6.75775 3.16045C6.52378 2.79186 6.27955 2.42006 6.02506 2.04571C6.00006 2.00853 5.98917 1.95404 5.96673 1.92071Z" fill="white"/>
<path d="M8.17313 2.2675C8.25839 2.72904 8.31416 3.12711 8.34172 3.46237C8.36223 3.71173 8.38916 3.92519 8.42249 4.10275C8.50711 4.55018 8.48531 4.92646 8.22762 5.31428C8.21672 5.33031 8.19493 5.33479 8.1789 5.32454C8.17313 5.32069 8.168 5.31492 8.16544 5.30787C7.98531 4.83736 7.95775 4.41365 8.2539 4.01172C8.28531 3.96878 8.3007 3.91749 8.29877 3.85852C8.27762 3.23096 8.19941 2.61301 8.06416 2.00404C8.06288 1.99763 8.06544 1.99378 8.07121 1.9925L8.08916 1.98866C8.10775 1.98417 8.11929 1.99186 8.12313 2.01045C8.1398 2.09058 8.15647 2.17648 8.17313 2.2675Z" fill="white"/>
<path d="M4.34494 3.14762C4.47507 3.31237 4.57956 3.45532 4.65969 3.57647C4.76353 3.73352 4.8661 3.87775 4.96802 4.00788C5.12956 4.21429 5.30584 4.40788 5.40904 4.63929C5.52058 4.88864 5.56673 5.15531 5.5475 5.44056C5.54686 5.45467 5.53468 5.46492 5.52122 5.46428C5.51673 5.46428 5.51225 5.46236 5.5084 5.45979C5.12443 5.19185 4.68725 4.61813 4.82251 4.12134C4.83597 4.07198 4.82892 4.02198 4.80071 3.97006C4.72186 3.82519 4.63661 3.68801 4.54494 3.55788C4.23917 3.12583 3.88982 2.66622 3.49815 2.1784C3.49815 2.1784 3.49815 2.17776 3.49815 2.17712L3.51225 2.16494C3.51802 2.16045 3.52379 2.16045 3.52828 2.16622C3.79559 2.46942 4.06802 2.79699 4.3443 3.14762H4.34494Z" fill="white"/>
<path d="M6.10327 2.6957C6.09558 2.68417 6.09942 2.66878 6.11096 2.66109L6.12442 2.65211C6.12763 2.65019 6.13083 2.65019 6.13276 2.6534C6.38917 3.0207 6.63981 3.3816 6.86609 3.76237C6.96096 3.92198 7.06416 4.07711 7.17634 4.22775C7.19173 4.2489 7.21352 4.26429 7.23788 4.27326C7.7007 4.43224 7.95967 4.78416 8.0148 5.32967C8.01736 5.35082 8.00134 5.37069 7.98018 5.37262C7.97249 5.37326 7.96416 5.37197 7.95711 5.36813C7.67121 5.213 7.36224 4.92775 7.24365 4.60723C7.19237 4.46813 7.14365 4.34121 7.0648 4.21685C6.74365 3.70724 6.42314 3.20019 6.10327 2.6957Z" fill="white"/>
<path d="M8.63851 3.1348C8.65775 3.2707 8.66928 3.41237 8.67377 3.56044C8.67826 3.70275 8.6898 3.84442 8.70839 3.9848C8.74108 4.23801 8.7539 4.49634 8.74685 4.7598C8.74172 4.94185 8.76864 5.11364 8.78403 5.29697C8.818 5.69377 8.72505 6.05723 8.50454 6.388C8.49877 6.39697 8.493 6.40659 8.48852 6.41684C8.48275 6.4303 8.47249 6.43735 8.45903 6.43864C8.44172 6.44056 8.42505 6.43094 8.41864 6.41492C8.2039 5.87646 8.27313 5.39697 8.62634 4.97582C8.64172 4.95723 8.64941 4.93672 8.65005 4.913C8.65326 4.52967 8.68146 4.11942 8.63082 3.74826C8.60198 3.53416 8.61544 3.31237 8.5757 3.10019C8.55454 2.98545 8.54813 2.86493 8.55775 2.73865C8.55839 2.72647 8.5648 2.72134 8.57698 2.72327C8.58403 2.72391 8.5898 2.72647 8.59428 2.73096C8.59749 2.73417 8.59877 2.73737 8.59941 2.74186C8.61351 2.87327 8.62057 3.00404 8.63851 3.1348Z" fill="white"/>
<path d="M4.52058 2.7534C4.76866 3.11365 5.02315 3.47198 5.28468 3.82775C5.55455 4.19506 5.7584 4.60531 6.01737 4.96108C6.37699 5.45531 6.5834 5.89056 6.50647 6.48479C6.50391 6.5053 6.48468 6.52005 6.46417 6.51748C6.45711 6.51684 6.4507 6.51364 6.44558 6.50979C5.97571 6.14505 5.6975 5.57838 5.83212 4.97775C5.84494 4.92326 5.80776 4.83864 5.78083 4.78993C5.53853 4.35852 5.32058 4.00147 5.12699 3.71749C4.91866 3.41301 4.7084 3.1066 4.49494 2.79891C4.48661 2.78737 4.48917 2.77134 4.50071 2.76237C4.50071 2.76237 4.50135 2.76173 4.50199 2.76173L4.51481 2.75275C4.51481 2.75275 4.5193 2.75147 4.52058 2.7534Z" fill="white"/>
<path d="M1.21483 2.91365C1.21483 2.91365 1.21355 2.91365 1.21419 2.91237L1.22316 2.89634C1.22637 2.89057 1.2315 2.88929 1.23791 2.8925C1.81547 3.20404 2.38534 3.52583 2.94751 3.85724C3.00392 3.89057 3.06482 3.90467 3.12956 3.89954C3.65264 3.85788 4.07059 4.07519 4.38405 4.55147C4.39302 4.56557 4.38917 4.58416 4.37507 4.59313C4.36994 4.59634 4.36353 4.59826 4.35712 4.59826C3.927 4.58544 3.55969 4.43929 3.23405 4.17454C3.09238 4.0598 2.94303 3.95403 2.78469 3.85852C2.29431 3.56108 1.7706 3.24634 1.21483 2.91365Z" fill="white"/>
<path d="M8.07826 6.43415C8.11865 6.45466 8.15006 6.488 8.17249 6.53479C8.31993 6.83735 8.443 7.13799 8.54236 7.43671C8.57441 7.53222 8.58275 7.5303 8.56672 7.43094C8.55326 7.34312 8.54172 7.25786 8.53275 7.17517C8.48403 6.71812 8.6039 6.33864 8.89236 6.03672C8.93339 5.99377 8.97121 5.91172 8.97762 5.85274C9.04556 5.25723 9.05005 4.66236 8.99044 4.06685C8.97697 3.92903 8.97185 3.80403 8.97569 3.69057C8.97698 3.65275 8.98018 3.65211 8.98531 3.68993C9.08787 4.38608 9.11479 5.08159 9.06608 5.77646C9.05454 5.93672 9.05646 6.09056 9.07121 6.23864C9.118 6.69312 8.98723 7.12069 8.67954 7.52004C8.65839 7.54761 8.63339 7.55017 8.60454 7.52709C8.58467 7.51043 8.57698 7.51491 8.58211 7.54056L8.62569 7.74953C8.63018 7.76812 8.62249 7.77773 8.60326 7.77902L8.58339 7.7803C8.55646 7.78158 8.53916 7.7694 8.53146 7.74312C8.4789 7.5662 8.28339 7.45145 8.13788 7.35338C8.12954 7.34761 8.12377 7.34953 8.12057 7.35915L8.11544 7.37709C8.11159 7.38927 8.1148 7.40209 8.12249 7.41235L8.40134 7.74696C8.41352 7.76107 8.41223 7.78286 8.39749 7.79504C8.39172 7.80017 8.38403 7.80337 8.3757 7.80337L7.65454 7.8162C7.62954 7.81684 7.61416 7.8053 7.60775 7.78158C7.56544 7.62453 7.55326 7.46299 7.57121 7.29568C7.58596 7.16171 7.53852 7.03286 7.42891 6.90915C7.40262 6.87966 7.39237 6.88415 7.39814 6.92325C7.42762 7.14184 7.4257 7.35979 7.39173 7.57581C7.38788 7.60209 7.36352 7.62004 7.33724 7.6162C7.32826 7.61491 7.31929 7.61107 7.31224 7.60466C6.84045 7.18799 6.58083 6.56171 6.76481 5.9412C6.78147 5.88479 6.77827 5.82966 6.75583 5.77646C6.64814 5.5239 6.5366 5.29249 6.42058 5.08287C6.11353 4.52839 5.77635 3.96813 5.4084 3.40339C5.40584 3.39955 5.40648 3.3957 5.40968 3.3925L5.4225 3.37968C5.4302 3.37198 5.43725 3.37262 5.4443 3.38224C5.90776 4.05852 6.25583 4.613 6.48917 5.04441C6.85134 5.71492 7.21673 6.36043 7.58531 6.9803C7.59493 6.99633 7.61544 7.0021 7.63147 6.99312C7.63596 6.99056 7.64044 6.98671 7.64301 6.98158C7.67762 6.92838 7.68596 6.87069 7.66801 6.80851C7.54365 6.38287 7.36224 6.00531 7.13019 5.60787C6.89621 5.20787 6.67057 4.81685 6.45455 4.43416C6.44365 4.41365 6.43917 4.39185 6.44109 4.36877C6.44878 4.28224 6.4334 4.20083 6.39558 4.12519C6.38852 4.11236 6.38596 4.09826 6.38788 4.08224C6.39109 4.04506 6.40199 4.04313 6.41993 4.07583L7.56416 6.17902C7.58211 6.21236 7.61096 6.23864 7.64557 6.25402C7.75647 6.3021 7.87506 6.36235 8.00198 6.43415C8.02954 6.44953 8.05454 6.44953 8.07826 6.43415Z" fill="white"/>
<path d="M8.07826 6.43415C7.84365 6.15979 7.57762 5.92582 7.4366 5.55979C7.3648 5.37454 7.29814 5.22967 7.23596 5.12646C6.91865 4.60018 6.60327 4.07198 6.28981 3.54121C6.28532 3.53288 6.28596 3.52583 6.29301 3.51878L6.30712 3.50467C6.3116 3.50019 6.31545 3.50083 6.31865 3.50596C6.63981 4.02326 6.96737 4.54121 7.30262 5.0598C7.35647 5.14313 7.42442 5.20595 7.50711 5.24826C7.97698 5.48928 8.22506 5.83031 8.27121 6.40082C8.27313 6.42517 8.26223 6.43928 8.23852 6.44312C8.19493 6.45017 8.14172 6.44697 8.07826 6.43415Z" fill="white"/>
<path d="M2.14752 3.85147C2.677 4.1457 3.23085 4.46685 3.80841 4.81364C3.87379 4.85275 3.95007 4.87134 4.02636 4.86685C4.12059 4.86108 4.21994 4.85916 4.32379 4.86044C4.73148 4.86685 5.11994 5.22262 5.34045 5.55723C5.3693 5.60146 5.35776 5.62133 5.3052 5.61749C4.84366 5.58287 4.39687 5.43672 4.07187 5.12903C3.96418 5.0271 3.86097 4.94634 3.76289 4.88736C3.4302 4.68672 3.06803 4.46172 2.67636 4.21172C2.50008 4.09954 2.26611 3.99057 2.12188 3.89442C1.77636 3.66429 1.7847 3.65019 2.14752 3.85147Z" fill="white"/>
<path d="M9.38082 4.31557L9.39877 4.31429C9.41095 4.31365 9.42185 4.32326 9.42249 4.33544C9.42249 4.33544 9.42249 4.33608 9.42249 4.33672C9.42249 4.90275 9.41864 5.45274 9.40967 5.98607C9.40518 6.23351 9.38723 6.48543 9.35454 6.74184C9.31864 7.0271 9.29941 7.31235 9.29749 7.59632C9.29749 7.65978 9.24877 7.71299 9.18531 7.72004L8.82249 7.75722C8.75134 7.76427 8.72698 7.73414 8.74813 7.66619C8.80774 7.47517 8.89621 7.32261 9.0148 7.20786C9.15133 7.07581 9.23018 7.01684 9.25582 6.80081C9.2789 6.60851 9.29877 6.41812 9.31544 6.22966C9.35967 5.73928 9.37185 5.11172 9.35197 4.34698C9.35133 4.33031 9.36415 4.31685 9.38082 4.31557Z" fill="white"/>
<path d="M4.8334 5.82582C5.44366 5.76684 5.9975 6.10723 6.27186 6.63671C6.27955 6.65082 6.27378 6.66812 6.25968 6.67581C6.25519 6.67838 6.24942 6.67966 6.24429 6.67902C5.93596 6.66043 5.65968 6.58864 5.41417 6.46364C5.06866 6.28671 4.80199 6.00338 4.47571 5.79377C3.85713 5.39697 3.24431 5.00851 2.63854 4.62839C2.62636 4.6207 2.62444 4.61108 2.63149 4.59954L2.63982 4.58544C2.63982 4.58544 2.64239 4.58352 2.64431 4.5848C3.26738 4.95595 3.927 5.3521 4.62251 5.77261C4.69238 5.81492 4.76289 5.83287 4.8334 5.82582Z" fill="white"/>
<path d="M11.2936 5.69184C10.8327 5.49249 10.318 5.35146 9.75005 5.26749C9.74748 5.26749 9.7462 5.26556 9.74556 5.263C9.72056 5.14569 9.71351 4.93544 9.72441 4.63223C9.72441 4.63031 9.72569 4.62839 9.72825 4.62839H9.72954C10.7597 4.79505 12.8359 5.44313 12.9879 6.69505C13.0193 6.95145 12.9898 7.29248 12.8994 7.71748C12.7231 8.55337 12.4308 9.30016 12.0238 9.95785C11.8744 10.1976 11.6757 10.3976 11.4699 10.588C10.6385 11.3578 9.58018 11.8136 8.29493 11.954C7.46416 12.045 6.69942 11.9989 5.92571 11.8341C5.01609 11.6399 4.2193 11.2476 3.53661 10.6572C3.09751 10.2777 2.75521 9.79311 2.50841 9.20337C2.19239 8.44696 2.01162 7.70594 1.96611 6.9803C1.93021 6.40594 2.2097 6.00531 2.63854 5.66492C2.67508 5.63608 2.72636 5.63351 2.76546 5.65979L3.1379 5.90531C3.18213 5.93415 3.18213 5.96364 3.1379 5.99313C3.03021 6.06492 2.93405 6.1553 2.8488 6.26428C2.20264 7.09376 3.90969 7.6803 4.41738 7.81235C6.03147 8.23286 7.81865 8.25978 9.45902 8.03735C10.1334 7.94632 10.7475 7.78286 11.3013 7.54761C11.7173 7.37068 12.4904 6.93222 12.1718 6.35338C11.9981 6.03672 11.6167 5.83159 11.293 5.69184H11.2936Z" fill="white"/>
<path d="M3.23085 5.43992C3.23085 5.43992 3.22764 5.43672 3.22956 5.43415L3.23854 5.42005C3.24559 5.40851 3.2552 5.40659 3.26674 5.41364C4.00007 5.87005 4.72186 6.32005 5.43276 6.76364C5.47763 6.7912 5.5475 6.81043 5.59943 6.80915C5.8084 6.80274 5.97827 6.81492 6.1084 6.84504C6.57634 6.95402 6.9475 7.3053 7.17378 7.71748C7.17891 7.72709 7.17506 7.73927 7.16544 7.7444C7.16352 7.74568 7.1616 7.74632 7.15903 7.74632C7.09173 7.7553 7.02634 7.75402 6.96224 7.74312C6.48788 7.6585 6.08212 7.46299 5.7443 7.15658C5.61866 7.04248 5.50263 6.92838 5.36225 6.83415C4.65776 6.36171 3.94751 5.89697 3.23085 5.43992Z" fill="white"/>
<path d="M4.00457 6.35434L3.9846 6.38417C3.97948 6.39182 3.98153 6.40217 3.98918 6.40729L6.03467 7.77663C6.04232 7.78175 6.05267 7.7797 6.05779 7.77205L6.07776 7.74222C6.08288 7.73457 6.08083 7.72422 6.07318 7.7191L4.02769 6.34976C4.02004 6.34464 4.00969 6.34669 4.00457 6.35434Z" fill="white"/>
<path d="M4.45423 7.19719L4.45356 7.19828C4.44777 7.20761 4.45065 7.21986 4.45998 7.22564L5.04618 7.5891C5.05551 7.59489 5.06776 7.59201 5.07354 7.58269L5.07422 7.5816C5.08 7.57227 5.07713 7.56002 5.0678 7.55424L4.48159 7.19077C4.47227 7.18499 4.46002 7.18786 4.45423 7.19719Z" fill="white"/>
</g>
</svg>
