<svg width="14" height="14" viewBox="0 0 14 14" fill="none" xmlns="http://www.w3.org/2000/svg">
<path id="Vector" d="M13.0776 5.74C11.8104 5.74 10.6489 5.355 9.69853 4.655V9.555C9.69853 12.005 7.69221 13.965 5.26351 13.965C4.31315 13.965 3.43318 13.685 2.72921 13.16C1.56766 12.355 0.828491 11.025 0.828491 9.52C0.828491 7.07 2.83481 5.11 5.26351 5.11C5.4747 5.11 5.65069 5.11 5.86189 5.145V7.595C5.68589 7.525 5.4747 7.49 5.26351 7.49C4.13716 7.49 3.22199 8.4 3.22199 9.52C3.22199 10.29 3.67957 10.955 4.31315 11.305C4.59474 11.445 4.91152 11.55 5.26351 11.55C6.35467 11.55 7.23463 10.675 7.30503 9.59V0H9.73373C9.73373 0.21 9.73373 0.42 9.80412 0.595C9.98012 1.505 10.5081 2.31 11.2825 2.8C11.8104 3.15 12.444 3.325 13.1128 3.325V5.74H13.0776Z" fill="white"/>
</svg>
