<svg width="35" height="36" viewBox="0 0 35 36" fill="none" xmlns="http://www.w3.org/2000/svg">
<g id="Vector">
<path d="M21.2153 12.585C21.3024 12.5258 21.3895 12.4647 21.4747 12.3999C21.6451 12.2722 21.8081 12.1389 21.9638 11.9963C22.2768 11.7112 22.5621 11.3984 22.8159 11.0596C23.0067 10.806 23.179 10.5375 23.3309 10.2561C23.5847 9.78776 23.7848 9.28607 23.92 8.75847C23.9738 8.54742 24.0182 8.33268 24.0516 8.11423C24.1016 7.78655 24.1275 7.44962 24.1275 7.10714C24.1294 3.45831 21.169 0.5 17.5177 0.5C13.8664 0.5 10.906 3.45831 10.906 7.10714C10.906 10.756 13.8664 13.7143 17.5177 13.7143C18.6589 13.7143 19.7315 13.4255 20.6688 12.9164C20.856 12.8146 21.0375 12.7035 21.2135 12.585H21.2153Z" fill="#006697"/>
<path d="M15.1557 22.8262C14.9242 22.0857 14.5314 21.4359 13.9738 20.8768C12.0379 18.9311 10.1687 17.0336 8.36807 15.1842C7.13985 13.9216 5.08169 15.3064 5.7449 16.8392C5.87457 17.1373 6.16913 17.5131 6.6267 17.9648C7.43625 18.759 8.21617 19.5476 8.96829 20.3307C9.80934 21.2045 8.70153 22.3671 7.91791 21.584C6.87123 20.5399 5.82456 19.4162 4.78158 18.211C4.59077 17.9907 4.49444 17.7334 4.49444 17.439C4.5 13.9198 4.5 10.3987 4.49259 6.87944C4.49259 6.34998 4.44257 5.9353 4.34809 5.63539C3.89793 4.20622 2.01761 3.64529 0.87831 4.64497C0.28365 5.16517 -0.00904953 5.7983 0.000213097 6.54436C0.0502313 10.6301 0.0520838 14.6473 0.00391815 18.5924C-0.00719701 19.4791 0.192876 20.1437 0.804209 20.7583C2.97352 22.9373 5.06502 25.0588 7.08242 27.1211C7.55667 27.6061 8.04759 28.0097 8.59038 28.4059C8.66633 28.4614 8.71264 28.541 8.72746 28.6428C8.74043 28.7335 8.74784 28.828 8.74969 28.9224C8.75525 30.9477 8.74599 33.0192 8.72191 35.137C8.72005 35.2703 8.80342 35.3907 8.92939 35.4351C9.0498 35.4795 9.22209 35.5017 9.44624 35.4999C11.3303 35.4925 13.2254 35.4851 15.1279 35.4758C15.265 35.4758 15.3762 35.3629 15.378 35.2259C15.3836 31.8474 15.3836 28.4503 15.3762 25.0347C15.3743 24.0239 15.3002 23.2871 15.1557 22.8262Z" fill="#006697"/>
<path d="M34.9926 6.40922C34.9963 4.65422 33.216 3.57494 31.6821 4.43392C30.7355 4.96524 30.565 5.72981 30.565 6.8276C30.565 10.419 30.565 13.9827 30.565 17.5168C30.565 17.8019 30.452 18.0759 30.2501 18.2776C29.1997 19.3347 28.1179 20.4251 27.0082 21.5525C26.2135 22.3578 25.3168 21.1563 26.0171 20.4047C26.734 19.6328 27.5547 18.7978 28.4791 17.8981C28.8811 17.5075 29.1497 17.1595 29.2831 16.8559C29.6536 16.0135 29.1664 15.0824 28.3235 14.7751C27.4936 14.4733 26.9415 14.9102 26.3061 15.5526C24.6907 17.1835 23.0586 18.8423 21.408 20.5288C20.7967 21.1545 20.391 21.6525 20.1927 22.0246C19.8259 22.7133 19.6425 23.3445 19.6407 23.9184C19.6333 27.6672 19.6314 31.4086 19.637 35.1408C19.637 35.3685 19.7518 35.4832 19.9797 35.4832L26.0338 35.4795C26.1857 35.4795 26.3098 35.3555 26.3098 35.2037V28.7317C26.3098 28.5725 26.3895 28.4244 26.5228 28.3374C26.9248 28.0801 27.3435 27.7302 27.777 27.2877C30.2297 24.7959 32.4194 22.5726 34.3479 20.6158C34.7851 20.1733 35.0018 19.6383 35 19.0126C34.9889 14.8806 34.987 10.6801 34.9926 6.40922Z" fill="#006697"/>
</g>
</svg>
