<svg width="15" height="14" viewBox="0 0 15 14" fill="none" xmlns="http://www.w3.org/2000/svg">
<g id="Group">
<path id="Vector" d="M7.1173 1.26C8.98283 1.26 9.22922 1.26 9.96839 1.295C10.7428 1.295 11.5171 1.505 12.0803 2.065C12.6435 2.625 12.8195 3.395 12.8547 4.165C12.8547 4.9 12.8899 5.11 12.8899 7C12.8899 8.89 12.8899 9.1 12.8547 9.835C12.8547 10.605 12.6435 11.375 12.0803 11.935C11.5171 12.495 10.7428 12.67 9.96839 12.705C9.22922 12.705 9.01803 12.74 7.1173 12.74C5.21658 12.74 5.00539 12.74 4.26622 12.705C3.52705 12.705 2.71749 12.495 2.15431 11.935C1.59113 11.375 1.41514 10.605 1.37994 9.835C1.37994 9.1 1.34474 8.89 1.34474 7C1.34474 5.11 1.34474 4.9 1.37994 4.165C1.37994 3.395 1.59113 2.625 2.15431 2.065C2.71749 1.505 3.49186 1.33 4.26622 1.295C5.00539 1.295 5.21658 1.26 7.1173 1.26ZM7.1173 0C5.21658 0 4.97019 0 4.23102 0.035C3.13987 0.07 2.04871 0.385 1.27435 1.155C0.499977 1.925 0.183189 3.01 0.147991 4.095C0.147991 4.83 0.112793 5.075 0.112793 6.965C0.112793 8.855 0.112792 9.1 0.147991 9.835C0.183189 10.92 0.499977 12.005 1.27435 12.775C2.04871 13.545 3.13987 13.86 4.23102 13.895C4.97019 13.895 5.21658 13.93 7.1173 13.93C9.01803 13.93 9.26442 13.93 10.0036 13.895C11.0947 13.86 12.1859 13.545 12.9603 12.775C13.7346 12.005 14.0514 10.92 14.0866 9.835C14.0866 9.1 14.1218 8.855 14.1218 6.965C14.1218 5.075 14.1218 4.83 14.0866 4.095C14.0514 3.01 13.7346 1.925 12.9603 1.155C12.1859 0.385 11.0947 0.07 10.0036 0.035C9.26442 0.035 9.01803 0 7.1173 0Z" fill="white"/>
<path id="Vector_2" d="M7.11733 3.39502C5.11102 3.39502 3.49188 5.00502 3.49188 7.00002C3.49188 8.99502 5.11102 10.605 7.11733 10.605C9.12365 10.605 10.7428 8.99502 10.7428 7.00002C10.7428 5.00502 9.12365 3.39502 7.11733 3.39502ZM7.11733 9.31002C5.81499 9.31002 4.75903 8.26002 4.75903 6.96502C4.75903 5.67002 5.81499 4.62002 7.11733 4.62002C8.41968 4.62002 9.47564 5.67002 9.47564 6.96502C9.47564 8.26002 8.41968 9.31002 7.11733 9.31002Z" fill="white"/>
<path id="Vector_3" d="M10.8835 4.09504C11.3501 4.09504 11.7283 3.71896 11.7283 3.25504C11.7283 2.79112 11.3501 2.41504 10.8835 2.41504C10.417 2.41504 10.0388 2.79112 10.0388 3.25504C10.0388 3.71896 10.417 4.09504 10.8835 4.09504Z" fill="white"/>
</g>
</svg>
