<svg width="33" height="32" viewBox="0 0 33 32" fill="none" xmlns="http://www.w3.org/2000/svg">
<g id="Vector">
<path d="M32.7823 1.86002C32.4242 2.71724 31.7029 2.89079 30.875 3.03103C30.7126 3.05908 30.5589 2.94864 30.531 2.78386C30.5275 2.76282 30.5257 2.74179 30.5275 2.7225C30.5956 1.20264 31.399 0.462867 32.9394 0.501433C32.9691 0.501433 32.9936 0.525975 32.9953 0.55753C33.0198 1.02734 32.9482 1.46209 32.7823 1.86002Z" fill="#003466"/>
<path d="M29.2019 3.78308C29.132 3.90404 29.0325 3.94085 28.9015 3.89176C27.6632 3.43072 27.616 1.85476 28.2378 0.86606C28.2815 0.797693 28.3688 0.776657 28.4369 0.816976C29.6682 1.54798 29.9232 2.53668 29.2019 3.78308Z" fill="#003466"/>
<path d="M26.645 2.76633C27.8361 3.40793 28.1435 4.58245 27.403 5.74295C27.3191 5.87442 27.2126 5.89721 27.0816 5.80956C25.9062 5.01895 25.6966 4.02149 26.4529 2.81717C26.493 2.7523 26.5769 2.72952 26.645 2.76633Z" fill="#003466"/>
<path d="M11.328 16.0945C11.5952 16.0174 11.5934 15.9543 11.3192 15.9034C9.50459 15.5686 8.26281 14.4993 7.32492 12.8392C7.06644 12.3816 6.8097 11.6085 6.55296 10.5217C6.21763 9.09296 5.8823 7.71509 5.34611 6.3565C5.02999 5.55187 4.54271 4.98039 3.88777 4.64556C3.65199 4.5246 3.66596 4.45273 3.92968 4.42994C7.1101 4.15121 9.85214 5.13115 12.1576 7.36624C13.7626 8.92292 15.324 10.4515 17.7464 10.2464C18.7559 10.1605 19.6868 9.74158 20.5374 8.98953C21.3076 8.30761 22.0551 7.68003 22.7782 7.10504C23.3755 6.62997 23.9693 6.36877 24.5614 6.3232C25.6564 6.23905 26.114 7.01739 26.769 7.69581C26.7882 7.71684 26.8214 7.7186 26.8423 7.69756C26.8476 7.6923 26.8528 7.68529 26.8563 7.67828C27.1899 6.78599 27.6999 5.95331 28.388 5.18023C28.9731 4.52285 29.5425 3.90228 30.0944 3.32203C30.1939 3.21861 30.3039 3.20458 30.4244 3.27996C30.4541 3.29925 30.4803 3.32203 30.5013 3.35184C30.5415 3.40618 30.538 3.47981 30.4943 3.53064C29.78 4.33878 29.0639 5.14166 28.3426 5.94104C27.8902 6.44065 27.265 7.35572 27.3314 8.07796C27.3383 8.15159 27.3715 8.20944 27.4309 8.25327L28.1959 8.80547C28.3094 8.88786 28.2972 8.93344 28.1575 8.9422L27.4187 8.98603C27.2458 8.9983 27.1689 9.08945 27.1881 9.263C27.272 9.9905 27.4257 10.7233 27.6492 11.4613C27.6894 11.5928 27.6422 11.6716 27.5078 11.6962C27.4292 11.712 27.3523 11.6681 27.2772 11.5665C27.2073 11.4718 27.1602 11.3666 27.1375 11.2509L26.7375 9.2034C26.7271 9.1473 26.6939 9.11926 26.6362 9.11926C26.39 9.11926 26.1559 9.16308 25.9341 9.24898C24.4461 9.82397 23.6602 10.9284 23.5781 12.5639C23.5396 13.3265 23.5012 14.1329 23.4611 14.9831C23.2515 19.4989 19.3497 21.3606 15.4707 21.9461C15.3921 21.9583 15.3537 22.0022 15.3537 22.0811L15.3502 24.949C15.3502 25.0314 15.3904 25.0734 15.4725 25.077C16.8644 25.1401 18.3368 25.1856 19.8912 25.2154C21.1993 25.24 22.6157 24.9718 23.9571 24.8859C24.0688 24.8789 24.1579 24.786 24.1579 24.672L24.1754 23.0785C24.1789 22.8629 24.3518 22.6911 24.5649 22.6911H30.3092C30.517 22.6911 30.6864 22.8594 30.6934 23.068C30.7476 24.9542 30.7493 26.8668 30.6952 28.8074C30.6882 29.0475 30.4926 29.2386 30.2533 29.2386L24.7692 29.2456C24.357 29.2456 24.1527 29.0405 24.1579 28.6251L24.1754 27.1578C24.1754 27.0771 24.137 27.0333 24.0566 27.0263C23.482 26.9807 22.8742 26.9141 22.235 26.8247C20.7103 26.6126 19.1105 26.6582 17.5578 26.7073C15.3572 26.7756 13.2037 26.8247 11.0957 26.8545C8.21041 26.8966 5.23434 27.0368 2.44863 26.9965C2.38226 26.9965 2.32812 26.9404 2.32812 26.8738L2.35083 24.9735C2.35083 24.8789 2.42942 24.8017 2.52373 24.8035C2.52373 24.8035 2.52548 24.8035 2.52722 24.8035C3.87729 24.8403 5.21512 24.9244 6.54598 24.9262C8.47239 24.9262 10.3359 24.9613 12.1383 25.0296C12.2589 25.0349 12.32 24.9753 12.32 24.8543V22.1389C12.32 22.0705 12.2868 22.032 12.2187 22.0267C10.8966 21.9022 9.66352 21.5972 8.52304 21.1081C7.63406 20.7277 6.79223 20.1808 5.95914 19.6619C5.26228 19.2289 4.54446 18.8397 3.80568 18.4979C3.77075 18.4821 3.76027 18.4541 3.7725 18.4172C3.78123 18.3874 3.80219 18.3769 3.83188 18.3839C4.66846 18.5698 5.54871 18.6066 6.47437 18.4961C8.3938 18.2647 9.53952 16.6081 11.328 16.0945ZM13.3207 24.963C13.3207 25.0173 13.3644 25.0629 13.4185 25.0647L14.2674 25.0875C14.3232 25.0892 14.3704 25.0454 14.3721 24.9893C14.3721 24.9893 14.3721 24.9875 14.3721 24.9858V22.1845C14.3721 22.1284 14.3285 22.0846 14.2726 22.0828L13.4151 22.0618C13.3592 22.06 13.312 22.1038 13.3103 22.1599C13.3103 22.1617 13.3103 22.1634 13.3103 22.1652L13.3207 24.963Z" fill="#003466"/>
<path d="M30.042 4.80684C30.7336 3.83742 31.8583 3.71471 32.8015 4.51759C32.8836 4.58946 32.894 4.71393 32.8242 4.79632C31.9684 5.78151 31.0497 5.85689 30.0699 5.02246C30.007 4.96812 29.9948 4.87345 30.0437 4.80509L30.042 4.80684Z" fill="#003466"/>
<path d="M31.1947 7.04719C30.2463 7.84306 29.0884 7.77469 28.4037 6.70185C28.3705 6.64926 28.374 6.57914 28.4159 6.53181C29.1774 5.63777 30.5572 5.96733 31.2191 6.80002C31.2785 6.8754 31.268 6.98408 31.1947 7.04719Z" fill="#003466"/>
<path d="M30.4262 20.4157H24.4461C23.9693 20.4157 23.5833 20.8031 23.5833 21.2817V21.3378C23.5833 21.8163 23.9693 22.2038 24.4461 22.2038H30.4262C30.903 22.2038 31.289 21.8163 31.289 21.3378V21.2817C31.289 20.8031 30.903 20.4157 30.4262 20.4157Z" fill="#003466"/>
<path d="M1.11778 24.3004H0.789434C0.351518 24.3019 -0.00152368 24.6602 4.94535e-06 25.0997L0.00524452 26.7336C0.00677314 27.1731 0.363743 27.5275 0.801659 27.5259H1.13001C1.56792 27.5244 1.92096 27.1661 1.91943 26.7265L1.91419 25.0927C1.91267 24.6532 1.5557 24.2988 1.11778 24.3004Z" fill="#003466"/>
<path d="M30.4332 29.7224H24.4356C23.9606 29.7224 23.5763 30.1081 23.5763 30.5849V30.6375C23.5763 31.1143 23.9606 31.5 24.4356 31.5H30.4332C30.9082 31.5 31.2925 31.1143 31.2925 30.6375V30.5849C31.2925 30.1081 30.9082 29.7224 30.4332 29.7224Z" fill="#003466"/>
</g>
</svg>
