<svg width="45" height="32" viewBox="0 0 45 32" fill="none" xmlns="http://www.w3.org/2000/svg">
<g id="Layer_1" clip-path="url(#clip0_7_800)">
<path id="Vector" d="M41.7701 3.50916C41.6464 3.50916 41.5441 3.40687 41.5441 3.28317C41.5441 3.28317 41.5441 3.28317 41.5441 3.28079L41.5513 2.05096C41.556 1.18985 42.2886 0.495244 43.1876 0.500001H43.3779C44.277 0.504759 45.0048 1.2065 45 2.06762L44.9929 3.29744C44.9929 3.42114 44.8906 3.52105 44.7669 3.52105L41.7701 3.50678V3.50916Z" fill="#CB0133"/>
<path id="Vector_2" d="M35.0082 26.0552C35.12 25.9791 35.1889 25.853 35.1889 25.7174V2.7527C35.1889 2.56953 35.265 2.52672 35.4173 2.629L36.4876 3.34502C36.6374 3.4473 36.7278 3.6162 36.7278 3.79698L36.7325 26.8093C36.7325 26.9258 36.6541 27.0281 36.5423 27.059C30.6509 28.6552 24.9712 30.1752 19.5055 31.6144C18.7492 31.8142 17.8668 31.7809 17.0938 31.6025C11.4545 30.3013 5.8319 28.9835 0.225932 27.6442C0.0760905 27.6085 0.00235898 27.5158 0.00235898 27.3635V3.8731C-1.94558e-05 3.62571 0.104632 3.43541 0.313934 3.3022L1.28909 2.67896C1.4865 2.55288 1.5864 2.60759 1.5864 2.84071V26.4049C1.5864 26.5167 1.63634 26.5999 1.73624 26.6523C1.91462 26.7451 2.10252 26.814 2.29755 26.8592C7.49919 28.0772 12.4654 29.2428 17.1961 30.3584C18.1379 30.582 19.2772 30.4298 20.2619 30.1586C25.2756 28.7765 30.0967 27.4515 34.7228 26.1884C34.825 26.1622 34.9202 26.1171 35.0082 26.0552Z" fill="#CB0133"/>
<path id="Vector_3" d="M17.529 9.68446V28.9668C17.529 29.0406 17.4696 29.1024 17.3959 29.1024C17.384 29.1024 17.3745 29.1024 17.3626 29.0977L3.22752 25.4795C3.16806 25.4653 3.12524 25.4106 3.12524 25.3487L3.13714 2.7527C3.13714 2.67896 3.19898 2.61711 3.27271 2.61711C3.29411 2.61711 3.31314 2.62187 3.33217 2.63138L17.4529 9.56076C17.5005 9.58455 17.529 9.63213 17.529 9.68446Z" fill="#CB0133"/>
<path id="Vector_4" d="M33.6477 2.73843L33.6525 25.3321C33.6525 25.3963 33.6097 25.451 33.5478 25.4653L19.2867 29.1C19.213 29.1191 19.1369 29.0739 19.1202 29.0001C19.1178 28.9882 19.1155 28.9763 19.1155 28.9645L19.106 9.73917C19.106 9.68684 19.1345 9.63926 19.1821 9.61548L33.4479 2.61473C33.5169 2.58143 33.5978 2.6076 33.6334 2.67658C33.643 2.69561 33.6477 2.71702 33.6477 2.73843Z" fill="#CB0133"/>
<path id="Vector_5" d="M44.7431 25.6698C44.3102 27.0519 43.8132 28.3698 43.3803 29.8018C43.3613 29.8636 43.2994 29.8993 43.2376 29.8827C43.1924 29.8708 43.1615 29.8446 43.1472 29.7994C42.6406 28.3222 42.1506 26.8997 41.6821 25.5319C41.5774 25.2321 41.5251 24.9158 41.5275 24.597L41.5346 4.83413C41.5346 4.72709 41.5893 4.67238 41.6963 4.67238L44.824 4.65572C44.8882 4.65572 44.9405 4.70568 44.9429 4.76991C44.9572 5.35271 44.9643 5.88793 44.9667 6.37082C44.9929 11.8254 44.9905 17.7105 44.9643 24.0261C44.9643 24.6612 44.8882 25.2084 44.7431 25.6698Z" fill="#CB0133"/>
</g>
<defs>
<clipPath id="clip0_7_800">
<rect width="45" height="31.25" fill="white" transform="translate(0 0.5)"/>
</clipPath>
</defs>
</svg>
